<?xml version="1.0" standalone="no"?>
<!DOCTYPE svg PUBLIC "-//W3C//DTD SVG 20010904//EN"
 "http://www.w3.org/TR/2001/REC-SVG-20010904/DTD/svg10.dtd">
<svg version="1.0" xmlns="http://www.w3.org/2000/svg"
 width="2056.000000pt" height="726.000000pt" viewBox="0 0 2056.000000 726.000000"
 preserveAspectRatio="xMidYMid meet">

<g transform="translate(0.000000,726.000000) scale(0.100000,-0.100000)"
fill="#000000" stroke="none">
<path d="M15113 7220 c-19 -8 -23 -17 -23 -57 0 -26 7 -61 15 -77 8 -15 15
-34 15 -41 0 -7 13 -39 29 -71 16 -33 32 -69 35 -81 4 -13 12 -23 17 -23 5 0
9 -7 9 -15 0 -8 14 -43 30 -77 30 -62 37 -88 22 -88 -4 0 -13 5 -19 11 -6 6
-20 16 -32 23 -11 6 -45 28 -76 49 -57 39 -91 43 -81 10 3 -10 8 -35 12 -55 5
-33 4 -38 -13 -38 -11 0 -28 7 -39 15 -10 8 -29 15 -40 15 -12 0 -27 7 -34 15
-14 17 -46 20 -55 5 -4 -6 0 -22 9 -35 9 -13 16 -29 16 -35 0 -20 -43 -9 -80
20 -21 17 -42 30 -47 30 -5 0 -22 14 -38 30 -16 17 -37 30 -47 30 -21 0 -22
-7 -3 -40 8 -14 14 -31 15 -37 0 -18 -35 -16 -50 2 -7 8 -16 15 -21 15 -5 0
-28 14 -51 30 -22 17 -47 30 -55 30 -16 0 -17 -24 -2 -51 10 -19 8 -20 -28
-13 -21 4 -48 14 -61 22 -35 23 -51 1 -30 -41 9 -17 19 -42 23 -54 5 -19 3
-22 -12 -16 -10 4 -31 16 -48 28 -39 28 -137 71 -195 85 -32 8 -1947 10 -6890
8 l-6845 -3 -55 -26 c-117 -55 -177 -167 -151 -282 23 -105 98 -175 217 -203
61 -14 728 -15 6875 -13 3743 1 6812 -1 6818 -5 20 -13 71 -110 71 -137 0 -14
7 -34 15 -45 8 -10 15 -32 15 -49 0 -16 7 -39 15 -49 8 -11 15 -41 15 -66 0
-25 12 -89 26 -141 14 -51 29 -113 34 -137 5 -23 14 -51 20 -61 5 -11 10 -30
10 -43 0 -13 7 -36 15 -52 8 -15 15 -45 15 -66 0 -21 7 -57 15 -80 8 -23 15
-54 15 -69 0 -14 7 -39 15 -55 8 -15 15 -40 15 -55 0 -14 7 -39 15 -55 8 -15
15 -39 15 -53 0 -13 6 -36 14 -51 7 -15 16 -58 20 -95 4 -38 11 -76 15 -85 10
-20 29 -91 40 -147 4 -22 13 -50 19 -62 7 -12 12 -34 12 -50 1 -15 7 -39 15
-53 8 -14 14 -44 15 -68 0 -24 6 -55 14 -70 7 -15 16 -51 19 -81 4 -30 11 -59
17 -65 5 -5 10 -24 10 -41 0 -17 7 -40 15 -51 8 -10 15 -32 15 -49 0 -16 7
-43 15 -59 8 -15 15 -44 15 -62 0 -19 7 -51 15 -71 8 -19 15 -49 15 -65 0 -16
7 -45 15 -65 8 -19 15 -47 15 -62 1 -14 7 -37 15 -51 8 -14 14 -39 15 -56 0
-16 7 -39 15 -50 8 -10 15 -39 15 -63 0 -24 6 -64 14 -90 16 -50 32 -114 45
-174 5 -21 14 -44 20 -50 6 -6 11 -29 11 -52 0 -22 6 -49 14 -60 7 -11 16 -46
19 -78 3 -32 10 -64 15 -70 5 -7 12 -36 15 -66 4 -30 11 -59 17 -65 5 -5 10
-23 10 -38 0 -16 7 -45 15 -65 8 -19 15 -45 15 -57 0 -12 7 -31 15 -42 8 -10
15 -33 15 -49 0 -17 6 -39 14 -50 7 -11 16 -54 19 -95 3 -41 9 -86 15 -100 5
-14 17 -52 26 -85 10 -33 22 -73 28 -90 6 -16 14 -59 19 -94 5 -36 13 -69 19
-75 5 -5 10 -22 10 -36 0 -14 6 -34 13 -45 7 -11 19 -34 26 -52 14 -35 13 -37
-104 -130 -27 -22 -63 -59 -80 -83 -16 -23 -45 -59 -62 -80 -18 -21 -33 -46
-33 -57 0 -11 -13 -39 -30 -61 -16 -23 -30 -52 -30 -65 0 -12 -6 -31 -14 -42
-41 -60 -38 -417 4 -459 6 -6 10 -16 10 -24 0 -8 18 -51 39 -96 71 -146 204
-277 366 -359 122 -61 171 -71 345 -72 173 0 225 12 365 82 211 105 363 299
421 533 28 115 24 288 -10 404 -15 49 -25 90 -23 92 4 5 518 13 1230 19 521 5
578 4 584 -10 3 -9 1 -26 -4 -38 -26 -55 -36 -123 -40 -253 -4 -113 -1 -149
11 -179 9 -21 16 -46 16 -56 0 -17 8 -39 39 -109 52 -118 166 -252 280 -329
291 -197 679 -177 958 49 290 235 378 670 201 998 -68 127 -212 271 -318 320
-30 13 -62 29 -70 33 -8 5 -22 12 -30 15 -8 3 -24 10 -34 16 -42 23 -171 33
-406 32 -135 -1 -862 -5 -1617 -9 l-1372 -7 -48 35 c-55 40 -106 100 -117 137
-23 75 -84 326 -80 331 2 3 425 9 941 13 516 4 1375 11 1910 16 l972 9 55 27
c87 42 116 92 155 264 10 47 47 207 81 355 34 149 79 347 100 440 21 94 50
217 64 275 14 58 40 168 57 245 17 77 38 167 45 200 8 33 18 78 23 100 14 67
101 444 121 530 10 44 30 130 44 190 14 61 43 188 66 283 22 96 40 198 40 230
0 74 -29 133 -94 186 l-48 41 -389 0 c-376 0 -389 1 -403 20 -9 11 -16 24 -16
28 0 4 -8 20 -19 35 -10 15 -36 54 -57 87 -83 129 -174 237 -348 416 -99 102
-203 214 -230 247 l-49 62 -166 1 c-203 1 -235 3 -286 17 -22 7 -74 12 -116
12 -45 0 -91 6 -112 15 -21 9 -67 15 -110 15 -49 0 -80 5 -93 15 -10 8 -41 15
-69 15 -27 0 -61 7 -75 15 -14 8 -44 14 -66 15 -23 0 -58 7 -77 15 -20 8 -56
15 -81 15 -24 0 -57 7 -72 15 -16 8 -47 15 -70 15 -22 0 -49 7 -60 15 -10 8
-39 15 -64 15 -25 0 -54 7 -64 15 -11 8 -38 15 -60 15 -23 0 -50 7 -60 15 -11
9 -42 15 -70 15 -29 0 -59 7 -70 15 -11 8 -38 15 -60 15 -23 0 -50 7 -60 15
-11 8 -36 15 -55 15 -20 1 -47 7 -61 15 -14 8 -39 14 -57 15 -18 0 -47 6 -65
14 -60 26 -140 46 -182 46 -22 0 -50 7 -60 15 -12 9 -42 15 -75 15 -33 1 -64
7 -75 15 -11 8 -36 15 -57 15 -20 0 -50 7 -65 15 -17 9 -57 15 -94 15 -37 1
-76 7 -90 15 -14 8 -45 14 -70 15 -25 0 -67 7 -94 15 -27 8 -83 15 -125 15
-42 1 -105 7 -141 15 -73 16 -203 19 -237 5z m692 -209 c227 -33 586 -105
1105 -221 706 -158 1177 -235 1523 -247 l187 -6 37 -46 c20 -25 123 -132 228
-236 195 -195 293 -311 371 -437 32 -53 41 -74 31 -79 -21 -12 -1719 -4 -1842
9 -60 6 -216 12 -345 13 -129 0 -266 5 -305 11 -57 8 -715 29 -722 24 -1 -1 3
-19 9 -40 16 -50 6 -56 -111 -56 -93 0 -94 0 -122 33 -55 63 -257 462 -350
692 -58 146 -70 179 -131 360 -77 230 -80 243 -59 249 36 11 364 -4 496 -23z
m-533 -450 c37 -36 72 -68 78 -71 6 -4 23 -42 39 -86 44 -121 64 -169 129
-299 58 -117 172 -312 212 -362 24 -31 18 -43 -20 -43 -24 0 -39 13 -87 73
-250 310 -428 639 -459 843 l-7 49 24 -20 c13 -11 54 -49 91 -84z m-466 -14
c51 -54 95 -119 173 -257 31 -56 197 -392 237 -480 47 -104 46 -110 -19 -110
-35 0 -38 3 -54 43 -9 23 -51 112 -94 197 -42 85 -120 243 -172 350 -53 107
-121 232 -151 278 l-56 82 38 -19 c21 -11 65 -48 98 -84z m-183 10 c62 -44 99
-92 194 -257 111 -192 289 -573 277 -592 -3 -4 -16 -8 -29 -8 -20 0 -32 16
-76 103 -28 56 -62 120 -74 142 -49 88 -171 299 -193 333 -12 21 -31 53 -42
72 -11 19 -26 44 -33 54 -50 79 -97 158 -112 185 l-16 32 23 -12 c13 -6 49
-30 81 -52z m300 0 c15 -10 27 -25 27 -34 0 -32 121 -266 235 -453 134 -222
205 -346 205 -360 0 -6 -19 -10 -43 -10 -39 0 -44 3 -55 33 -11 30 -208 410
-297 572 -21 39 -64 118 -96 177 -33 59 -59 109 -59 112 0 8 50 -14 83 -37z
m110 19 c38 -15 117 -98 117 -122 0 -28 87 -225 151 -339 33 -60 105 -176 159
-257 l98 -147 -28 -6 c-16 -4 -38 -2 -48 4 -28 15 -160 216 -272 416 -67 119
-220 436 -220 456 0 12 5 11 43 -5z m-268 -447 c93 -151 210 -391 201 -415 -8
-21 -22 -10 -31 23 -3 15 -10 30 -13 33 -4 3 -16 23 -27 45 -11 22 -27 51 -36
65 -9 14 -42 65 -74 114 -55 85 -74 130 -95 221 -8 37 -8 38 6 20 9 -11 39
-59 69 -106z m5003 -917 c2 -24 -4 -65 -12 -90 -9 -25 -16 -71 -16 -103 0 -38
-5 -61 -15 -69 -9 -7 -15 -30 -15 -54 0 -22 -7 -50 -15 -60 -8 -11 -15 -36
-15 -55 0 -20 -7 -45 -15 -55 -8 -11 -15 -35 -15 -53 0 -19 -7 -50 -15 -70 -8
-19 -15 -61 -15 -92 -1 -33 -7 -64 -15 -75 -8 -11 -15 -35 -15 -54 0 -19 -9
-47 -21 -63 -19 -27 -25 -29 -89 -29 -79 0 -105 7 -91 24 30 36 148 294 176
386 44 140 60 347 36 450 -6 25 -11 57 -11 72 0 26 2 27 63 31 114 7 112 8
115 -41z m-1220 -2 c44 -117 55 -184 59 -387 l5 -203 34 0 c34 0 367 27 419
34 17 3 82 8 145 11 63 4 118 10 123 14 14 13 27 124 27 226 0 90 -21 281 -36
327 -5 16 3 18 80 18 l85 0 11 -57 c6 -32 15 -77 20 -100 41 -176 -39 -485
-188 -730 l-43 -73 -222 1 c-122 1 -265 4 -317 8 l-95 6 260 28 c359 40 345
37 345 55 0 11 -7 13 -32 7 -18 -4 -71 -11 -118 -15 -282 -26 -423 -42 -446
-50 -14 -6 -55 -10 -91 -10 -49 0 -72 -5 -85 -17 -15 -13 -23 -15 -36 -6 -19
12 -19 25 -2 283 41 644 44 673 72 668 7 -2 19 -19 26 -38z m89 -17 c56 -158
57 -164 55 -293 -1 -69 -4 -136 -7 -150 -5 -25 -5 -25 55 -22 l60 4 0 148 c0
146 -8 205 -46 318 -18 53 -18 52 5 52 19 0 24 -11 67 -140 16 -46 19 -80 16
-207 l-3 -153 56 0 56 0 -3 173 c-3 143 -7 184 -26 244 -12 40 -22 75 -22 78
0 3 42 5 93 5 l92 0 30 -82 c27 -75 30 -98 35 -238 l5 -155 45 4 c25 1 48 7
51 12 6 10 4 25 -26 194 -9 50 -22 129 -29 178 l-12 87 47 0 48 0 10 -52 c26
-133 31 -179 31 -284 0 -118 -14 -175 -47 -192 -10 -5 -96 -12 -191 -16 -96
-3 -182 -11 -192 -16 -10 -6 -70 -10 -132 -10 l-114 0 2 133 c3 133 -15 267
-50 379 -8 25 -12 49 -9 52 17 16 32 1 50 -51z m-642 37 c5 -7 -33 -9 -117 -4
-68 4 -125 8 -127 10 -2 2 50 4 117 4 72 0 123 -4 127 -10z m-1777 -25 c-3 -3
-9 2 -12 12 -6 14 -5 15 5 6 7 -7 10 -15 7 -18z m1297 10 c187 -8 373 -15 413
-15 l72 0 0 -35 c0 -21 -6 -38 -14 -41 -12 -5 -443 11 -566 21 -25 2 -160 9
-300 15 -409 18 -400 17 -400 46 l0 24 228 0 c125 0 380 -7 567 -15z m-2357
-37 c17 -71 62 -251 72 -288 9 -34 19 -77 53 -240 9 -41 23 -106 31 -145 19
-88 36 -170 43 -212 l5 -33 -74 0 -74 0 -17 58 c-40 135 -62 299 -82 587 -8
110 -17 226 -21 258 l-7 57 31 0 c28 0 31 -4 40 -42z m130 15 c6 -16 20 -59
32 -98 12 -38 26 -79 30 -90 5 -11 10 -29 13 -40 2 -11 25 -92 51 -180 65
-226 63 -218 95 -345 40 -159 41 -174 14 -178 -27 -4 -38 16 -47 83 -4 28 -13
73 -21 100 -7 28 -21 86 -30 130 -18 83 -103 396 -129 475 -55 170 -55 170
-36 170 10 0 22 -12 28 -27z m193 -58 c24 -75 33 -110 74 -290 64 -281 91
-368 151 -486 24 -47 44 -88 44 -92 0 -9 -82 -9 -97 1 -11 7 -49 117 -73 212
-13 50 -36 157 -60 285 -30 156 -61 261 -114 393 l-25 63 37 -3 c37 -3 37 -3
63 -83z m206 33 c15 -29 41 -84 58 -123 18 -38 43 -95 57 -125 14 -30 35 -80
48 -110 12 -30 27 -66 32 -80 20 -49 69 -206 84 -270 36 -152 29 -200 -28
-200 -83 0 -145 94 -199 305 -48 188 -102 352 -197 603 l-20 52 69 0 69 0 27
-52z m283 -3 c139 -188 227 -350 261 -480 34 -127 60 -295 57 -360 l-3 -60
-55 0 -55 0 -7 100 c-6 95 -13 133 -53 270 -19 63 -21 69 -48 123 -9 19 -17
38 -17 43 0 17 -89 190 -143 278 -29 46 -60 96 -69 112 l-18 29 55 0 c54 0 54
0 95 -55z m213 -34 c31 -47 57 -93 57 -102 0 -10 5 -21 11 -25 8 -4 8 -9 0
-17 -6 -6 -12 -9 -14 -6 -3 4 -104 155 -141 212 l-19 29 24 -4 c17 -2 40 -27
82 -87z m1076 -6 c185 -8 381 -17 436 -20 55 -2 144 -5 197 -5 l97 0 7 -36
c11 -58 3 -60 -168 -45 -84 7 -254 17 -378 22 -124 5 -250 12 -280 14 -30 3
-140 9 -243 13 -196 7 -206 10 -207 55 0 15 11 17 101 17 56 0 253 -7 438 -15z
m-204 -95 c344 -16 440 -20 650 -30 110 -5 216 -10 236 -10 39 0 54 -18 44
-51 -6 -17 -17 -19 -88 -19 -45 0 -156 7 -247 15 -91 8 -218 15 -283 15 -65 0
-148 5 -185 10 -37 6 -148 14 -247 18 -100 5 -186 12 -193 16 -7 4 -12 16 -12
27 0 23 16 24 325 9z m100 -100 c116 -5 346 -15 512 -21 283 -12 302 -14 307
-32 12 -48 4 -50 -173 -44 -91 3 -240 10 -331 16 -91 6 -228 13 -305 15 -77 3
-189 10 -250 15 -60 6 -125 10 -142 10 -30 1 -33 4 -33 31 l0 31 103 -6 c56
-3 197 -10 312 -15z m-50 -100 c290 -13 732 -30 808 -30 l57 0 0 -40 0 -41
-57 6 c-32 3 -188 11 -348 16 -159 6 -310 13 -335 14 -25 2 -130 7 -235 10
-216 7 -245 14 -245 56 l0 28 63 -4 c34 -3 166 -10 292 -15z m-100 -105 c94
-4 262 -10 375 -15 113 -5 289 -10 392 -10 l186 0 7 -30 c4 -16 4 -34 0 -40
-9 -15 -442 -12 -640 5 -93 8 -230 15 -304 15 -73 0 -162 5 -197 12 -64 11
-64 12 -64 46 0 33 0 34 38 28 20 -3 114 -8 207 -11z m120 -125 c138 -5 379
-10 537 -11 l287 -1 11 -29 c25 -60 30 -59 -297 -59 -164 0 -312 4 -329 9 -18
5 -128 12 -245 15 -118 4 -238 9 -266 12 -53 5 -53 6 -53 40 l0 34 53 0 c28 0
165 -5 302 -10z m394 -131 c257 0 421 -3 432 -10 22 -11 25 -52 5 -68 -16 -14
-1013 -9 -1111 5 l-60 9 -3 39 -3 39 163 -7 c90 -4 349 -7 577 -7z m426 -140
c14 -45 -10 -49 -269 -49 -133 0 -378 -3 -546 -7 -284 -6 -307 -5 -323 12 -44
43 -35 45 373 47 212 1 432 5 490 8 258 13 268 13 275 -11z m1269 -557 c4 -20
14 -75 21 -122 8 -47 28 -165 45 -264 16 -98 27 -189 24 -202 -4 -17 -15 -25
-38 -29 -17 -3 -60 -10 -96 -15 -36 -6 -104 -17 -152 -25 -160 -27 -272 -46
-358 -60 -47 -8 -138 -23 -202 -33 l-118 -18 0 40 c0 23 5 91 10 151 5 61 12
153 15 205 3 52 8 120 12 150 3 30 5 65 4 78 -2 15 3 22 16 22 13 0 15 2 5 9
-9 5 -12 27 -10 72 l3 64 180 5 c99 3 282 6 406 8 l226 2 7 -38z m226 18 c0
-11 -2 -20 -4 -20 -2 0 -6 9 -9 20 -3 11 -1 20 4 20 5 0 9 -9 9 -20z m-1830
-1 c-298 -48 -387 -61 -484 -70 -54 -5 -106 -14 -116 -19 -11 -6 -50 -10 -88
-10 l-70 0 -7 41 c-4 22 -3 45 2 50 5 5 168 10 363 12 195 1 378 3 405 3 l50
2 -55 -9z m-2280 -13 c0 -2 11 -71 25 -153 31 -188 31 -205 -4 -73 -46 176
-53 209 -46 220 6 10 25 14 25 6z m1014 -12 c3 -9 9 -39 12 -68 l6 -53 -53 -5
c-105 -11 -402 -2 -479 14 -84 18 -153 43 -90 33 161 -26 322 -5 453 59 79 38
141 46 151 20z m1550 -72 c2 -4 2 -27 -1 -49 -5 -35 -12 -47 -47 -70 -22 -15
-49 -31 -59 -35 -37 -16 -187 -121 -187 -132 0 -17 69 -80 115 -105 22 -11 65
-24 95 -29 l55 -7 1 -55 c0 -30 -3 -77 -8 -105 -5 -27 -8 -77 -8 -111 1 -39
-4 -64 -12 -71 -7 -5 -49 -15 -93 -22 -44 -6 -118 -18 -165 -26 -47 -8 -123
-19 -170 -25 -47 -6 -99 -15 -116 -21 -17 -5 -98 -9 -180 -9 -196 1 -195 0
-197 133 -1 53 -6 97 -10 97 -5 0 -7 22 -6 50 2 27 0 53 -4 56 -13 14 -7 34
11 35 16 1 16 2 0 6 -19 5 -25 43 -8 43 6 0 10 5 10 11 0 5 -4 8 -9 5 -11 -7
-25 75 -14 84 11 9 189 43 293 56 19 2 70 12 113 21 l79 17 -6 29 c-3 16 -6
45 -6 64 0 45 -23 53 -71 25 -52 -30 -182 -31 -236 -2 -21 11 -31 20 -22 20
28 0 557 83 719 113 89 17 137 20 144 9z m-2224 -154 c119 -43 240 -56 480
-55 l225 2 2 -30 c2 -17 7 -61 13 -100 5 -38 12 -115 16 -170 10 -167 11 -174
23 -188 13 -17 11 -159 -3 -169 -5 -3 -20 -2 -32 2 -13 5 -70 4 -137 -2 -83
-9 -134 -9 -184 -1 -39 6 -91 7 -123 2 -71 -10 -222 -11 -236 -1 -6 4 -37 165
-68 357 -32 193 -60 359 -63 369 -4 15 -2 18 13 11 11 -4 44 -16 74 -27z
m1333 15 c-7 -2 -21 -2 -30 0 -10 3 -4 5 12 5 17 0 24 -2 18 -5z m-80 -10 c-7
-2 -21 -2 -30 0 -10 3 -4 5 12 5 17 0 24 -2 18 -5z m-1536 -125 c-3 -8 -6 -5
-6 6 -1 11 2 17 5 13 3 -3 4 -12 1 -19z m3871 -509 c6 -54 -12 -59 -211 -58
-100 1 -193 5 -207 9 -22 7 -22 8 -4 9 11 1 23 4 27 7 3 4 30 8 59 10 29 3
109 15 178 28 69 13 132 23 140 22 8 0 16 -13 18 -27z m-121 -1565 c71 -24
182 -117 183 -154 0 -8 7 -28 15 -44 20 -39 21 -185 0 -212 -8 -10 -15 -27
-15 -36 0 -26 -40 -88 -56 -88 -8 0 -33 -13 -56 -30 -22 -16 -51 -30 -63 -30
-13 0 -28 -7 -35 -15 -14 -17 -90 -21 -118 -6 -9 6 -42 21 -73 34 -31 14 -75
41 -97 62 -97 87 -127 239 -69 357 35 71 113 143 176 162 62 20 150 19 208 0z
m-3293 -37 c69 -32 130 -87 154 -140 55 -120 60 -159 32 -237 -7 -19 -15 -39
-16 -45 -2 -5 -8 -18 -14 -27 -5 -10 -14 -26 -19 -35 -9 -19 -126 -103 -143
-103 -6 0 -32 -8 -59 -17 -46 -17 -50 -16 -101 1 -140 50 -192 92 -239 193
-82 176 13 375 204 428 66 19 134 12 201 -18z"/>
<path d="M15777 6778 c40 -43 46 -55 78 -173 14 -55 31 -111 36 -125 5 -14 13
-43 18 -65 5 -22 21 -85 35 -140 14 -55 29 -123 32 -152 6 -48 5 -54 -24 -82
-17 -17 -38 -31 -46 -31 -9 0 -16 -3 -16 -7 0 -5 40 -9 89 -10 49 -2 120 -7
157 -12 38 -6 70 -8 72 -6 3 2 -10 12 -28 22 -94 52 -108 78 -196 376 -8 26
-20 68 -28 95 -29 95 -56 192 -56 198 0 7 67 -53 261 -235 207 -194 439 -422
439 -431 0 -10 -31 -35 -55 -45 -14 -6 16 -11 90 -16 61 -3 133 -10 160 -14
l50 -7 -53 27 c-64 33 -90 69 -138 191 -40 104 -108 310 -134 408 -21 79 -15
107 26 129 26 13 23 14 -62 27 -49 7 -107 15 -129 17 l-40 5 36 -25 c61 -43
90 -102 174 -352 39 -115 46 -146 30 -137 -7 4 -91 82 -186 173 -96 92 -201
189 -234 217 -33 27 -89 80 -125 116 -37 38 -73 66 -85 66 -11 0 -42 7 -69 15
-27 8 -63 15 -80 15 l-30 0 31 -32z"/>
<path d="M16270 6736 c0 -2 9 -6 20 -9 11 -3 18 -1 14 4 -5 9 -34 13 -34 5z"/>
<path d="M16707 6639 c23 -14 44 -44 69 -97 37 -78 42 -89 63 -152 130 -381
137 -416 101 -447 -11 -10 -20 -20 -20 -24 0 -3 51 -9 113 -13 61 -4 193 -16
291 -26 230 -26 260 -26 251 -2 -4 9 -14 36 -22 60 -14 39 -33 49 -33 17 0 -8
-11 -22 -24 -30 -20 -13 -45 -15 -128 -12 -121 5 -191 20 -234 52 -31 24 -57
76 -127 260 -54 140 -53 136 -20 130 15 -3 78 -12 140 -20 120 -15 159 -30
211 -78 33 -32 43 -27 18 8 -7 11 -21 45 -31 75 -10 30 -19 57 -21 58 -1 2
-12 -6 -23 -17 -24 -24 -107 -29 -143 -10 -11 6 -54 13 -96 16 -43 3 -84 9
-93 14 -24 12 -52 120 -40 152 14 35 39 40 128 27 104 -16 191 -44 233 -75 18
-14 35 -25 36 -25 2 0 -5 19 -16 42 -23 53 -57 67 -180 78 -165 15 -283 31
-334 46 -26 8 -60 14 -75 14 l-26 0 32 -21z"/>
<path d="M17360 6538 c52 -39 135 -134 298 -338 63 -80 132 -165 152 -190 29
-37 106 -137 131 -172 3 -4 20 -2 38 5 l32 12 -2 148 c-1 81 1 150 3 153 3 3
21 -14 40 -38 19 -24 63 -80 99 -124 35 -45 83 -107 107 -138 42 -55 44 -56
70 -42 l27 14 -6 103 c-11 167 -10 429 1 449 13 24 8 26 -63 35 l-58 7 24 -24
c32 -32 49 -162 45 -342 l-3 -139 -75 86 c-41 48 -105 124 -142 169 -183 228
-203 257 -193 288 6 18 2 20 -45 20 -28 0 -65 7 -81 16 -51 26 -66 13 -22 -20
57 -43 217 -232 223 -264 3 -15 3 -82 0 -150 l-5 -123 -36 38 c-19 21 -42 49
-51 63 -9 14 -43 55 -77 92 -33 36 -61 69 -61 73 0 5 -19 31 -43 59 -47 56
-122 155 -150 198 -22 34 -21 47 1 64 15 12 9 13 -41 14 -32 0 -66 4 -75 9 -9
5 -37 12 -62 16 l-45 8 45 -35z"/>
<path d="M18412 6374 c-18 -12 -22 -25 -22 -65 0 -119 92 -194 381 -313 90
-37 130 -80 137 -144 4 -44 2 -51 -18 -62 -31 -17 -108 -7 -161 21 -23 11 -67
44 -96 72 -29 27 -55 48 -58 45 -2 -2 3 -30 12 -62 9 -32 20 -53 25 -48 4 4
39 -7 79 -27 59 -29 83 -35 154 -39 79 -4 85 -3 109 21 59 59 13 187 -92 258
-24 16 -49 29 -56 29 -8 0 -19 7 -26 15 -7 8 -18 15 -25 15 -8 0 -26 6 -42 14
-36 19 -99 46 -106 46 -14 0 -127 73 -127 82 0 5 -9 21 -20 35 -25 33 -26 69
-1 83 54 28 163 -11 257 -94 l51 -45 -15 45 c-10 30 -20 44 -32 44 -10 0 -23
7 -30 15 -7 8 -20 15 -29 15 -9 0 -21 4 -26 9 -18 17 -128 51 -165 51 -20 0
-46 -7 -58 -16z"/>
<path d="M19175 4578 c-33 -4 -116 -10 -185 -13 -139 -6 -358 -23 -407 -31
-18 -4 -33 -11 -33 -16 0 -7 29 -8 83 -4 45 4 161 13 257 21 96 8 209 17 250
20 123 9 170 16 170 26 0 10 -34 9 -135 -3z"/>
<path d="M19227 4484 c-4 -4 -73 -11 -154 -16 -82 -5 -164 -10 -183 -13 -19
-2 -107 -9 -195 -15 -146 -10 -189 -19 -173 -36 3 -3 140 6 305 21 452 39 454
39 454 50 0 12 -44 19 -54 9z"/>
<path d="M18960 5215 c0 -3 13 -50 29 -105 22 -77 27 -108 21 -137 -4 -21 -10
-75 -14 -120 l-5 -83 53 0 54 0 4 48 c8 90 0 237 -18 319 l-19 83 -52 0 c-29
0 -53 -2 -53 -5z"/>
<path d="M520 3235 c0 -1878 2 -2175 14 -2175 15 0 31 -38 86 -195 87 -248
121 -339 131 -352 17 -20 821 -19 838 1 9 10 11 188 9 694 l-3 679 215 6 c285
8 452 34 615 94 276 102 443 271 515 519 38 133 42 214 38 944 -4 694 -4 706
-26 782 -12 43 -29 92 -37 110 -42 96 -134 364 -149 433 -71 321 -310 515
-733 594 -177 34 -349 41 -945 41 l-568 0 0 -2175z m1405 2092 c355 -57 566
-163 693 -351 29 -42 52 -81 52 -86 0 -5 5 -21 12 -37 41 -98 41 -112 45 -858
3 -515 1 -731 -7 -759 -7 -21 -15 -60 -20 -85 -23 -128 -124 -307 -211 -373
-16 -13 -44 -35 -62 -49 -52 -42 -176 -103 -272 -133 -190 -59 -316 -76 -574
-76 -115 0 -216 -3 -225 -6 -14 -6 -16 -77 -16 -700 l0 -694 -377 2 -378 3 -3
2113 -2 2114 622 -5 c506 -3 642 -7 723 -20z"/>
<path d="M730 5250 c0 -6 48 -70 108 -141 59 -72 118 -146 132 -164 92 -121
245 -303 252 -299 29 18 -3 67 -214 331 -184 229 -228 279 -250 281 -16 2 -28
-2 -28 -8z"/>
<path d="M845 5250 c-3 -6 14 -36 39 -68 131 -164 217 -273 266 -336 34 -43
64 -72 78 -74 12 -2 22 2 22 8 0 6 -51 75 -113 153 -62 78 -140 176 -172 217
-88 111 -105 125 -120 100z"/>
<path d="M940 5247 c0 -12 190 -256 259 -332 15 -16 46 -56 70 -87 32 -42 50
-58 67 -58 13 0 24 2 24 5 0 3 -86 113 -191 245 -130 163 -197 240 -210 240
-10 0 -19 -6 -19 -13z"/>
<path d="M1030 5254 c0 -5 76 -101 212 -267 13 -16 45 -57 73 -90 81 -100 107
-127 127 -127 10 0 18 5 18 10 0 6 -50 72 -111 148 -61 75 -144 178 -185 228
-40 50 -80 94 -89 98 -21 8 -45 8 -45 0z"/>
<path d="M1145 5250 c-6 -9 118 -174 295 -394 55 -67 72 -82 98 -84 18 -2 32
-1 32 3 0 3 -46 63 -102 132 -57 69 -125 153 -151 187 -126 158 -155 184 -172
156z"/>
<path d="M1242 5245 c2 -8 83 -118 181 -245 171 -221 179 -230 213 -230 19 0
34 2 34 5 0 5 -57 76 -185 230 -27 34 -77 94 -110 135 -33 40 -70 84 -82 97
-25 26 -56 31 -51 8z"/>
<path d="M1330 5250 c0 -5 13 -24 28 -42 41 -47 53 -62 212 -260 78 -98 146
-181 151 -184 5 -3 23 -9 40 -14 22 -6 28 -6 22 3 -16 27 -377 473 -395 490
-22 18 -58 23 -58 7z"/>
<path d="M1445 5251 c-3 -6 12 -34 35 -63 81 -106 153 -194 192 -237 22 -24
58 -69 81 -99 22 -31 82 -97 132 -148 66 -67 96 -105 110 -140 18 -47 70 -121
191 -269 32 -38 112 -137 179 -220 215 -267 238 -294 247 -289 4 3 8 17 8 31
0 28 37 -18 -988 1253 -141 175 -172 205 -187 181z"/>
<path d="M1535 5250 c-8 -13 -23 7 660 -840 109 -135 243 -302 299 -372 56
-70 106 -126 111 -124 6 1 11 13 13 27 2 18 -20 53 -85 134 -49 61 -273 340
-497 620 -225 281 -420 522 -434 538 -26 27 -56 35 -67 17z"/>
<path d="M1627 5252 c-3 -4 74 -104 170 -222 96 -118 216 -266 266 -329 51
-63 108 -133 127 -156 178 -216 298 -364 353 -434 48 -62 77 -77 77 -41 0 16
-233 313 -831 1056 -54 67 -105 124 -114 128 -22 8 -43 8 -48 -2z"/>
<path d="M680 5219 c0 -37 -11 -22 265 -369 72 -91 162 -204 200 -252 37 -48
72 -85 77 -82 4 3 8 17 8 32 0 20 -66 109 -256 347 -140 176 -264 329 -275
340 -19 19 -19 19 -19 -16z"/>
<path d="M1737 5243 c-3 -5 78 -109 179 -233 101 -124 209 -256 239 -295 190
-240 320 -398 344 -419 11 -11 21 -24 21 -30 0 -6 18 -31 39 -55 37 -43 61
-48 61 -13 0 9 -186 249 -413 532 -337 422 -417 516 -439 518 -14 2 -28 -1
-31 -5z"/>
<path d="M1835 5230 c9 -14 447 -555 510 -630 77 -91 153 -183 203 -249 44
-59 65 -69 70 -36 2 13 -44 77 -135 190 -75 94 -193 240 -262 325 -340 422
-330 410 -366 410 -14 0 -23 -4 -20 -10z"/>
<path d="M1978 5193 c11 -15 29 -37 39 -48 10 -11 40 -48 66 -82 26 -34 53
-68 60 -75 7 -7 35 -42 61 -78 27 -36 54 -69 61 -75 6 -5 31 -36 54 -69 24
-32 51 -66 60 -75 9 -9 38 -45 65 -81 27 -36 60 -76 72 -90 13 -14 34 -41 47
-60 26 -40 57 -52 57 -22 0 11 -136 190 -302 398 -258 323 -307 379 -332 382
l-28 4 20 -29z"/>
<path d="M2070 5193 c0 -5 22 -33 48 -65 26 -31 80 -96 119 -145 40 -48 97
-117 125 -152 29 -35 63 -77 74 -95 12 -17 41 -53 66 -81 24 -27 54 -65 67
-82 27 -39 51 -43 51 -8 0 24 -33 68 -209 281 -42 50 -112 135 -156 190 -111
136 -126 151 -157 158 -16 4 -28 3 -28 -1z"/>
<path d="M2215 5139 c5 -8 52 -68 105 -134 53 -66 138 -174 190 -239 94 -118
95 -119 98 -86 4 38 -5 52 -190 287 -132 170 -133 171 -178 180 -27 5 -31 3
-25 -8z"/>
<path d="M680 5108 c0 -39 10 -53 198 -288 50 -63 119 -149 151 -190 33 -41
87 -109 121 -150 33 -41 60 -79 60 -83 0 -5 5 -5 10 -2 29 18 6 62 -102 198
-62 78 -182 230 -267 337 -85 107 -158 199 -163 205 -4 5 -8 -7 -8 -27z"/>
<path d="M2362 5072 c48 -65 203 -242 206 -234 11 34 -112 189 -185 232 -30
18 -33 18 -21 2z"/>
<path d="M680 4973 c1 -33 16 -57 112 -178 62 -77 181 -227 265 -332 85 -106
158 -193 163 -193 6 0 10 13 10 29 0 22 -22 57 -82 133 -46 57 -168 210 -272
341 -103 130 -190 237 -192 237 -2 0 -4 -17 -4 -37z"/>
<path d="M680 4848 c0 -41 13 -59 266 -378 146 -184 270 -336 275 -338 5 -2 9
12 9 30 0 30 -32 75 -227 324 -124 159 -247 315 -271 347 -25 31 -47 57 -49
57 -1 0 -3 -19 -3 -42z"/>
<path d="M680 4733 c0 -37 17 -62 266 -376 147 -185 270 -334 275 -331 32 19
1 66 -257 392 -147 186 -270 341 -275 347 -5 5 -9 -8 -9 -32z"/>
<path d="M1345 4648 c-3 -7 -4 -332 -3 -723 l3 -710 180 0 c166 0 184 2 228
23 67 32 121 84 148 145 l24 52 3 525 3 525 -24 45 c-30 57 -91 95 -182 115
-91 19 -373 21 -380 3z m513 -614 l23 -7 -3 -286 c-3 -279 -4 -287 -27 -331
-13 -25 -35 -56 -50 -69 -34 -32 -117 -68 -167 -72 l-39 -4 -3 388 -2 387 122
0 c68 0 133 -3 146 -6z"/>
<path d="M680 4607 c0 -30 12 -52 65 -119 36 -46 93 -119 127 -163 34 -44 96
-123 138 -176 41 -53 104 -132 139 -177 35 -45 67 -79 72 -76 5 3 9 18 9 34 0
22 -59 102 -271 367 -150 186 -273 340 -275 342 -2 2 -4 -12 -4 -32z"/>
<path d="M680 4478 c0 -28 38 -82 256 -358 141 -179 260 -333 265 -343 13 -24
29 -12 29 22 0 22 -58 100 -252 342 -138 173 -262 327 -275 342 l-23 29 0 -34z"/>
<path d="M2021 4425 c0 -24 9 -53 22 -72 25 -36 291 -365 349 -433 57 -66 139
-167 171 -211 32 -45 57 -51 57 -14 0 16 -54 91 -172 238 -95 118 -227 281
-292 363 -66 82 -123 153 -128 159 -4 5 -8 -8 -7 -30z"/>
<path d="M680 4358 c0 -32 24 -66 206 -294 113 -143 222 -279 243 -304 20 -25
48 -59 61 -77 13 -18 27 -30 32 -27 24 15 -2 61 -123 214 -72 91 -190 239
-262 330 -170 215 -157 202 -157 158z"/>
<path d="M2020 4294 c0 -34 9 -50 63 -115 57 -70 205 -252 371 -458 38 -47 75
-90 82 -94 8 -4 14 -13 14 -20 1 -19 49 -69 60 -62 6 3 10 14 10 24 0 15 -529
693 -586 751 -12 12 -14 9 -14 -26z"/>
<path d="M680 4232 c0 -37 11 -55 130 -204 178 -224 246 -309 310 -389 30 -37
63 -80 73 -94 23 -33 37 -32 37 3 -1 19 -37 73 -131 192 -71 91 -167 212 -212
270 -45 57 -110 140 -144 184 l-63 79 0 -41z"/>
<path d="M2020 4173 c0 -36 8 -51 53 -105 29 -35 75 -92 102 -127 28 -34 76
-95 107 -135 32 -39 70 -87 85 -106 147 -187 226 -280 238 -280 44 0 4 60
-276 411 -160 200 -295 368 -300 374 -5 5 -9 -7 -9 -32z"/>
<path d="M680 4099 c0 -25 24 -61 118 -177 64 -80 182 -227 262 -327 80 -99
150 -183 155 -185 6 -3 11 5 13 17 2 16 -35 71 -134 195 -315 396 -405 508
-410 508 -2 0 -4 -14 -4 -31z"/>
<path d="M2020 4045 c0 -32 8 -48 38 -80 20 -23 49 -59 64 -80 15 -22 43 -57
62 -77 19 -21 60 -70 91 -110 30 -40 85 -109 120 -153 36 -44 92 -115 125
-157 34 -43 67 -78 75 -78 39 0 4 57 -179 284 -354 441 -378 471 -387 481 -5
5 -9 -7 -9 -30z"/>
<path d="M680 3984 c0 -31 8 -49 38 -85 20 -26 100 -126 177 -224 77 -98 163
-205 190 -239 28 -34 68 -84 89 -113 22 -29 43 -50 48 -47 18 11 6 58 -24 98
-18 22 -84 106 -147 186 -63 80 -166 210 -229 290 -152 192 -142 183 -142 134z"/>
<path d="M2020 3921 c0 -35 31 -79 177 -249 35 -40 63 -76 63 -80 0 -4 18 -26
40 -50 22 -24 58 -66 79 -95 21 -29 47 -61 58 -72 10 -11 40 -48 66 -82 74
-97 97 -114 97 -73 0 17 -484 635 -556 710 l-24 25 0 -34z"/>
<path d="M680 3855 c0 -37 10 -53 121 -190 67 -83 189 -234 271 -337 82 -104
152 -188 154 -188 2 0 4 15 4 33 0 24 -13 48 -49 92 -41 51 -392 493 -473 596
l-27 34 -1 -40z"/>
<path d="M2020 3794 c0 -41 -13 -23 302 -414 118 -146 220 -265 228 -265 38 0
8 48 -162 261 -101 127 -223 281 -272 342 -49 62 -90 112 -92 112 -2 0 -4 -16
-4 -36z"/>
<path d="M680 3731 c0 -32 66 -119 370 -496 27 -33 146 -183 265 -332 176
-221 222 -273 241 -273 13 0 24 3 24 8 0 4 -39 54 -85 112 -47 58 -113 139
-145 180 -33 41 -87 109 -120 150 -70 87 -163 204 -235 294 -150 189 -290 363
-301 376 -12 12 -14 10 -14 -19z"/>
<path d="M2020 3680 c1 -40 8 -51 255 -355 88 -108 170 -211 183 -228 36 -50
59 -70 71 -63 6 4 11 14 11 22 0 8 -84 119 -187 247 -103 127 -214 266 -247
307 -89 113 -86 110 -86 70z"/>
<path d="M680 3608 c0 -38 46 -103 211 -303 32 -38 166 -206 299 -372 223
-281 243 -303 272 -303 29 0 30 1 16 18 -12 14 -126 156 -281 352 -33 42 -126
159 -204 257 -32 40 -102 127 -155 195 -53 68 -110 139 -127 158 l-30 35 -1
-37z"/>
<path d="M2020 3556 c0 -31 9 -52 41 -95 23 -31 47 -60 53 -66 7 -5 30 -33 51
-61 74 -95 191 -239 224 -274 18 -19 39 -47 47 -62 15 -28 47 -37 59 -18 9 14
-2 31 -144 205 -238 293 -301 370 -316 390 -14 19 -14 18 -15 -19z"/>
<path d="M680 3477 c0 -28 47 -92 325 -440 277 -347 329 -407 351 -407 14 0
24 4 22 9 -4 12 -689 871 -694 871 -2 0 -4 -15 -4 -33z"/>
<path d="M2006 3453 c-22 -22 42 -120 183 -278 14 -16 47 -57 73 -90 25 -33
56 -71 68 -85 12 -14 36 -44 53 -68 29 -39 31 -41 48 -26 10 9 17 20 15 23 -5
8 -184 232 -319 399 -103 127 -110 135 -121 125z"/>
<path d="M680 3363 c0 -33 29 -72 372 -508 142 -180 178 -221 201 -223 15 -2
27 0 27 3 0 7 -50 71 -170 220 -91 113 -135 168 -155 194 -24 32 -255 322
-267 336 -4 5 -8 -4 -8 -22z"/>
<path d="M1977 3363 c-20 -19 -14 -27 238 -343 25 -30 65 -81 90 -112 44 -56
67 -69 80 -48 4 7 -389 510 -399 510 -2 0 -6 -3 -9 -7z"/>
<path d="M1931 3282 c-9 -17 17 -54 175 -251 102 -127 189 -231 193 -231 5 0
14 6 20 14 10 12 -9 41 -100 153 -62 76 -145 179 -185 230 -41 50 -78 94 -83
98 -6 3 -15 -3 -20 -13z"/>
<path d="M680 3230 c0 -37 18 -62 263 -366 144 -180 268 -329 275 -332 8 -2
12 6 12 25 -1 20 -26 60 -92 143 -51 63 -140 176 -198 250 -217 276 -252 320
-256 320 -2 0 -4 -18 -4 -40z"/>
<path d="M1876 3227 c-16 -12 -1 -34 158 -234 97 -122 183 -224 192 -227 9 -3
22 -2 31 2 12 7 -23 56 -165 234 -99 124 -184 228 -190 232 -5 3 -17 0 -26 -7z"/>
<path d="M1821 3185 l-23 -12 29 -34 c16 -19 35 -44 43 -55 8 -12 73 -97 143
-189 104 -135 133 -166 150 -163 31 4 27 21 -15 75 -21 27 -98 125 -171 219
-127 163 -135 171 -156 159z"/>
<path d="M1731 3151 c-23 -6 -22 -8 35 -76 92 -110 146 -176 186 -225 72 -89
128 -150 137 -150 3 0 12 4 20 9 11 7 -21 51 -135 192 -83 101 -163 201 -178
222 -16 20 -31 37 -35 36 -3 -1 -17 -4 -30 -8z"/>
<path d="M680 3104 c0 -31 30 -72 264 -365 146 -182 268 -331 273 -332 4 -1 9
10 11 24 2 20 -28 64 -139 205 -285 359 -401 504 -405 504 -2 0 -4 -16 -4 -36z"/>
<path d="M1648 3133 c-10 -2 -18 -7 -18 -10 0 -5 284 -368 329 -420 30 -35 38
-38 60 -24 11 7 12 13 4 23 -6 7 -83 108 -173 223 -89 116 -167 211 -173 211
-7 1 -20 0 -29 -3z"/>
<path d="M1545 3120 c-4 -6 20 -41 52 -79 32 -38 114 -136 183 -219 93 -112
130 -151 145 -149 11 1 19 7 17 12 -1 6 -80 108 -175 227 -128 162 -178 217
-194 218 -12 0 -25 -5 -28 -10z"/>
<path d="M1257 3097 c10 -12 96 -120 192 -240 157 -196 176 -217 203 -217 23
0 28 3 21 13 -47 60 -119 150 -236 295 -124 153 -142 172 -169 172 -29 0 -29
0 -11 -23z"/>
<path d="M1340 3112 c0 -5 19 -31 43 -59 39 -46 107 -129 276 -335 59 -72 91
-93 105 -69 3 5 -78 113 -180 240 -166 207 -188 231 -215 231 -16 0 -29 -4
-29 -8z"/>
<path d="M1440 3115 c0 -6 154 -198 240 -300 20 -23 58 -70 85 -104 35 -44 54
-61 69 -59 25 4 31 22 14 39 -8 8 -32 37 -53 65 -36 46 -72 90 -242 299 -39
48 -55 61 -81 63 -18 2 -32 0 -32 -3z"/>
<path d="M680 2987 c0 -33 32 -77 264 -372 18 -22 57 -71 87 -110 158 -200
182 -230 190 -233 5 -2 9 12 9 30 0 34 -38 86 -270 373 -59 72 -96 119 -196
248 -42 53 -78 97 -80 97 -2 0 -4 -15 -4 -33z"/>
<path d="M680 2862 c0 -36 12 -55 122 -193 67 -85 164 -208 217 -274 171 -217
194 -245 203 -245 4 0 8 15 8 33 -1 30 -112 177 -511 671 l-39 49 0 -41z"/>
<path d="M681 2735 c0 -37 15 -59 199 -290 110 -137 230 -289 267 -337 38 -48
71 -87 76 -87 4 -1 7 15 7 34 0 30 -29 71 -227 317 -124 156 -240 299 -257
318 -17 19 -39 46 -48 60 l-17 25 0 -40z"/>
<path d="M680 2615 c0 -36 13 -56 127 -200 70 -88 177 -223 238 -300 61 -77
124 -157 139 -177 35 -47 46 -48 46 -5 0 32 -7 42 -219 307 -33 41 -115 145
-182 230 -159 203 -149 193 -149 145z"/>
<path d="M680 2481 c0 -20 19 -52 62 -107 35 -44 139 -176 233 -294 94 -118
186 -234 204 -257 38 -49 51 -54 51 -17 0 24 -41 85 -131 194 -37 44 -295 369
-367 462 -21 26 -40 47 -44 48 -5 0 -8 -13 -8 -29z"/>
<path d="M680 2355 c0 -30 33 -77 266 -370 146 -184 270 -335 275 -335 5 0 9
14 9 31 0 24 -21 57 -93 147 -51 65 -173 217 -271 340 -97 122 -179 222 -182
222 -2 0 -4 -16 -4 -35z"/>
<path d="M680 2239 c0 -39 15 -60 267 -374 147 -184 271 -331 275 -329 23 14
2 60 -69 151 -246 316 -466 593 -469 593 -2 0 -4 -18 -4 -41z"/>
<path d="M680 2113 c0 -41 -22 -11 329 -453 81 -102 160 -202 175 -222 35 -47
46 -48 46 -5 0 27 -20 58 -107 168 -145 181 -274 344 -362 457 -40 50 -74 92
-77 92 -2 0 -4 -17 -4 -37z"/>
<path d="M680 1992 c0 -32 44 -92 345 -472 28 -36 82 -104 120 -152 38 -49 73
-88 77 -88 4 0 8 14 8 31 0 25 -47 89 -261 357 -144 180 -268 334 -275 342
-12 12 -14 10 -14 -18z"/>
<path d="M680 1862 c0 -29 32 -75 222 -315 121 -155 222 -283 223 -284 1 -2
16 -6 33 -9 21 -4 32 -3 32 5 0 6 -48 70 -107 142 -60 73 -125 155 -147 183
-21 28 -44 56 -50 61 -7 6 -26 28 -42 51 -26 36 -67 87 -141 173 l-22 26 -1
-33z"/>
<path d="M680 1740 c0 -30 21 -63 154 -234 194 -249 200 -256 231 -256 14 0
25 4 25 9 0 8 -299 387 -387 490 l-22 26 -1 -35z"/>
<path d="M680 1618 c0 -38 4 -43 196 -285 60 -77 93 -99 108 -75 4 6 -264 356
-299 391 -3 2 -5 -12 -5 -31z"/>
<path d="M680 1488 c0 -30 12 -51 76 -130 42 -51 81 -96 88 -100 15 -10 46
-10 46 0 0 7 -169 224 -196 252 -12 12 -14 10 -14 -22z"/>
<path d="M680 1363 c0 -30 8 -46 36 -75 33 -36 74 -51 74 -28 0 10 -98 140
-106 140 -2 0 -4 -17 -4 -37z"/>
<path d="M3802 5398 c-5 -7 -15 -42 -21 -78 -5 -36 -17 -103 -25 -150 -19
-105 -40 -227 -61 -345 -9 -49 -22 -126 -30 -170 -8 -44 -22 -120 -30 -170 -9
-49 -22 -126 -30 -170 -8 -44 -22 -120 -30 -170 -20 -115 -42 -238 -60 -340
-8 -44 -21 -119 -30 -167 -19 -112 -41 -235 -60 -340 -20 -117 -42 -239 -59
-338 -47 -267 -78 -438 -95 -535 -11 -60 -31 -175 -45 -255 -14 -80 -34 -194
-45 -255 -11 -60 -31 -175 -45 -255 -37 -213 -95 -541 -102 -572 -4 -23 -2
-28 13 -28 15 0 26 -21 52 -92 29 -82 73 -204 145 -403 l22 -60 442 -3 441 -2
7 37 c3 21 25 137 49 258 24 121 49 255 55 297 7 43 18 85 24 93 9 12 71 15
401 16 l390 1 14 -71 c8 -39 20 -71 25 -71 6 0 58 -126 115 -280 l104 -280
438 0 c411 0 437 1 433 18 -2 9 -69 388 -149 842 -80 454 -152 861 -160 905
-13 70 -44 244 -115 650 -11 61 -26 151 -35 200 -31 169 -36 200 -50 280 -7
44 -21 121 -30 170 -15 85 -26 145 -60 337 -109 627 -158 893 -174 943 -11 33
-49 146 -85 250 -36 105 -68 210 -72 235 -13 89 66 80 -743 80 -563 0 -721 -3
-729 -12z m1413 -70 c4 -20 57 -317 100 -566 8 -45 21 -120 30 -167 8 -47 21
-123 30 -170 26 -150 44 -249 54 -305 5 -30 19 -107 30 -170 223 -1262 334
-1890 346 -1955 16 -84 78 -441 125 -707 15 -87 24 -160 22 -163 -3 -3 -182
-5 -398 -5 -365 0 -393 1 -398 18 -3 9 -30 159 -61 332 -30 173 -57 325 -60
338 -5 22 -8 22 -149 22 -78 0 -305 -3 -503 -7 l-360 -6 -52 -311 c-28 -171
-55 -327 -59 -346 l-8 -35 -397 -3 -397 -2 0 24 c0 13 5 48 11 77 5 30 14 77
19 104 5 28 15 88 24 135 8 47 134 762 281 1590 146 828 272 1543 281 1590 15
84 27 149 58 325 9 50 27 152 41 228 14 76 25 143 25 148 0 5 266 9 680 9
l680 0 5 -22z"/>
<path d="M3982 5176 c411 -515 441 -551 451 -523 10 31 18 20 -263 370 -153
191 -167 206 -198 207 l-32 0 42 -54z"/>
<path d="M4046 5218 c12 -19 330 -415 387 -480 46 -55 78 -71 92 -48 4 6 -7
27 -24 48 -17 20 -113 139 -213 264 -172 214 -185 228 -216 228 -24 0 -31 -3
-26 -12z"/>
<path d="M4176 5192 c16 -21 45 -59 66 -83 20 -24 54 -66 76 -94 221 -277 266
-330 282 -333 11 -2 21 -15 25 -31 3 -16 54 -88 113 -161 59 -73 127 -159 152
-190 69 -88 435 -540 469 -580 30 -34 30 -35 31 -10 0 14 -8 39 -19 55 -10 17
-276 352 -590 745 -513 641 -575 715 -603 718 l-31 3 29 -39z"/>
<path d="M4260 5221 c0 -5 6 -16 13 -23 7 -7 26 -31 42 -53 33 -44 446 -565
503 -635 20 -24 55 -67 77 -96 22 -28 56 -71 76 -95 20 -24 114 -143 210 -264
164 -206 174 -217 177 -188 2 18 -3 43 -10 56 -7 13 -244 312 -527 665 -415
518 -519 642 -538 642 -13 0 -23 -4 -23 -9z"/>
<path d="M4363 5210 c8 -11 27 -35 43 -53 16 -17 53 -63 83 -101 29 -38 61
-78 71 -90 11 -11 35 -41 54 -66 20 -25 63 -79 96 -120 33 -41 86 -108 117
-147 363 -456 489 -612 496 -612 18 -2 4 60 -21 95 -16 21 -160 201 -321 399
-161 198 -314 387 -341 420 -221 273 -241 295 -266 295 -23 0 -24 -2 -11 -20z"/>
<path d="M4450 5225 c0 -9 842 -1060 852 -1064 5 -2 7 13 2 35 -7 41 -31 75
-199 284 -394 488 -475 589 -513 639 -64 84 -93 111 -119 111 -13 0 -23 -2
-23 -5z"/>
<path d="M4550 5224 c0 -5 56 -76 200 -253 19 -24 58 -72 85 -107 65 -81 159
-199 235 -294 33 -41 87 -110 120 -152 33 -42 65 -80 70 -83 14 -8 12 34 -3
67 -7 14 -156 206 -332 427 -280 350 -323 400 -347 401 -16 0 -28 -3 -28 -6z"/>
<path d="M4656 5218 c8 -12 188 -237 457 -571 65 -81 122 -145 126 -142 29 17
-15 80 -271 394 -220 269 -275 331 -295 331 -17 0 -22 -4 -17 -12z"/>
<path d="M4752 5213 c16 -19 240 -300 371 -465 43 -54 80 -98 82 -98 3 0 5 17
5 38 0 34 -13 54 -106 168 -58 71 -137 169 -177 218 -126 155 -126 156 -160
156 -28 0 -29 -1 -15 -17z"/>
<path d="M4850 5224 c0 -3 53 -71 118 -151 64 -80 136 -170 159 -201 57 -73
57 -73 50 -25 -4 36 -26 69 -141 213 -110 137 -141 170 -161 170 -14 0 -25 -3
-25 -6z"/>
<path d="M4950 5224 c0 -3 30 -44 68 -91 37 -47 80 -103 96 -125 15 -22 32
-36 37 -31 19 19 -11 85 -77 167 -56 69 -74 85 -96 86 -16 0 -28 -3 -28 -6z"/>
<path d="M5050 5224 c0 -13 63 -93 70 -89 8 5 -2 64 -14 84 -7 11 -56 16 -56
5z"/>
<path d="M3930 5153 c0 -17 12 -40 28 -58 15 -16 51 -61 81 -99 29 -37 59 -75
66 -85 17 -20 115 -146 215 -274 41 -53 78 -96 81 -97 4 0 9 9 12 20 5 20 -32
74 -143 210 -20 25 -101 127 -179 228 -79 100 -147 182 -152 182 -5 0 -9 -12
-9 -27z"/>
<path d="M3907 5064 c-6 -32 -12 -23 183 -263 69 -84 136 -168 150 -185 35
-46 100 -124 132 -160 l27 -31 1 27 c0 20 -28 63 -102 156 -57 71 -157 197
-223 282 -66 84 -129 165 -141 178 l-21 26 -6 -30z"/>
<path d="M3890 4953 c0 -20 20 -52 66 -108 35 -44 92 -114 124 -155 33 -41 87
-109 120 -150 33 -41 84 -105 112 -142 29 -38 56 -68 60 -68 5 0 8 14 8 30 0
21 -14 47 -42 84 -54 67 -207 255 -230 281 -9 11 -30 36 -45 56 -75 97 -156
194 -164 197 -5 2 -9 -9 -9 -25z"/>
<path d="M3876 4865 c-3 -9 -6 -23 -6 -30 0 -10 426 -562 470 -608 4 -5 12 5
18 21 10 29 6 36 -72 134 -45 56 -151 191 -235 298 -84 107 -156 196 -161 198
-4 2 -10 -4 -14 -13z"/>
<path d="M3857 4783 c-16 -15 -4 -60 23 -93 38 -46 337 -425 403 -513 l52 -68
8 35 c9 35 6 40 -119 198 -223 283 -355 448 -358 448 -1 0 -6 -3 -9 -7z"/>
<path d="M3840 4643 c0 -17 12 -40 28 -58 15 -16 41 -48 57 -70 16 -22 73 -94
125 -160 102 -128 113 -142 204 -260 58 -75 68 -80 80 -40 6 20 -23 58 -304
401 -35 43 -89 109 -118 147 -30 37 -58 67 -63 67 -5 0 -9 -12 -9 -27z"/>
<path d="M4516 4563 c-3 -16 -24 -136 -47 -268 -45 -266 -63 -375 -109 -640
-30 -175 -77 -449 -140 -820 -17 -99 -33 -188 -36 -197 -5 -17 16 -18 345 -18
391 0 360 -7 341 73 -5 23 -19 94 -30 157 -11 63 -25 135 -30 160 -5 25 -19
97 -30 160 -11 63 -25 135 -30 160 -36 174 -129 722 -206 1212 -7 47 -21 57
-28 21z m184 -1258 c7 -49 32 -189 55 -310 24 -121 46 -238 50 -261 l6 -41
-68 -6 c-37 -4 -98 -7 -136 -7 -65 0 -67 1 -62 23 2 12 9 49 15 82 6 33 31
170 56 305 25 135 48 262 51 283 8 55 18 34 33 -68z"/>
<path d="M3816 4555 c-8 -31 -8 -31 68 -124 34 -41 112 -138 174 -215 63 -78
130 -159 149 -181 19 -22 49 -60 67 -84 l31 -44 3 38 c3 30 -3 45 -35 85 -238
301 -439 549 -444 550 -4 0 -10 -11 -13 -25z"/>
<path d="M4655 4494 c4 -26 40 -79 119 -178 61 -77 179 -226 262 -331 326
-413 377 -476 381 -472 2 3 -1 23 -6 46 -10 45 -36 88 -104 168 -23 28 -177
220 -341 427 -165 207 -304 376 -309 376 -5 0 -6 -16 -2 -36z"/>
<path d="M3797 4463 c-4 -3 -7 -12 -7 -19 0 -6 101 -138 224 -293 123 -154
233 -293 245 -308 17 -24 22 -26 31 -13 5 8 7 24 3 35 -3 10 -85 118 -182 239
-97 120 -202 252 -234 293 -57 71 -67 80 -80 66z"/>
<path d="M4683 4350 c6 -49 -3 -37 426 -575 194 -242 337 -413 339 -404 8 41
-48 120 -392 554 -203 256 -371 465 -374 465 -2 0 -2 -18 1 -40z"/>
<path d="M3780 4345 c0 -18 68 -111 236 -323 130 -163 239 -299 241 -302 5 -6
23 21 23 35 0 6 -66 94 -147 196 -82 102 -188 238 -238 302 -49 63 -96 116
-102 116 -7 1 -13 -10 -13 -24z"/>
<path d="M3760 4250 c0 -31 30 -73 240 -335 132 -165 243 -300 247 -300 5 0 9
14 11 31 3 27 -25 65 -223 310 -125 153 -238 290 -251 304 l-24 25 0 -35z"/>
<path d="M4704 4204 c3 -9 6 -26 6 -38 0 -14 41 -74 103 -152 57 -71 228 -286
381 -477 153 -192 280 -346 282 -344 3 3 0 26 -7 52 -11 45 -67 120 -309 420
-27 33 -137 171 -245 308 -177 222 -230 280 -211 231z"/>
<path d="M3747 4164 c-24 -24 4 -68 230 -349 130 -162 242 -294 248 -292 5 2
11 14 13 28 2 18 -19 51 -83 129 -107 130 -188 229 -285 350 -114 141 -115
142 -123 134z"/>
<path d="M3726 4049 c-6 -34 -15 -21 236 -340 68 -85 150 -190 183 -232 33
-42 63 -76 68 -77 4 0 7 14 7 30 0 22 -16 51 -52 99 -131 170 -429 551 -432
551 -2 0 -6 -14 -10 -31z"/>
<path d="M4735 4022 c10 -40 75 -128 395 -528 337 -421 382 -474 376 -439 -4
22 -10 49 -13 59 -5 18 -79 111 -463 586 -73 91 -169 211 -214 267 -45 56 -84
102 -88 103 -3 0 0 -22 7 -48z"/>
<path d="M3707 3964 c-26 -26 -2 -66 164 -269 94 -116 202 -249 241 -297 38
-49 74 -88 79 -88 5 0 9 15 9 34 0 27 -11 49 -53 98 -29 35 -131 160 -226 278
-201 249 -205 253 -214 244z"/>
<path d="M4756 3883 c14 -58 27 -79 131 -207 59 -72 109 -133 113 -136 3 -3
29 -36 59 -74 29 -38 62 -78 72 -90 10 -11 31 -37 46 -57 15 -20 91 -114 168
-209 77 -95 153 -189 169 -209 l28 -36 -6 45 c-8 49 -15 59 -161 240 -139 170
-343 424 -489 607 -66 84 -124 152 -129 152 -4 1 -4 -11 -1 -26z"/>
<path d="M3690 3835 c0 -31 28 -71 236 -331 129 -162 239 -292 245 -289 24 15
3 58 -78 160 -165 208 -238 301 -313 398 -41 53 -78 96 -82 97 -5 0 -8 -16 -8
-35z"/>
<path d="M3667 3742 c-5 -28 10 -50 172 -247 41 -49 90 -110 110 -134 20 -25
59 -72 86 -105 28 -34 65 -80 83 -103 19 -24 38 -43 43 -43 24 0 4 53 -43 111
-87 107 -165 204 -309 381 -125 153 -137 165 -142 140z"/>
<path d="M4790 3702 c0 -21 59 -101 256 -347 141 -176 274 -342 296 -370 22
-27 61 -77 88 -110 27 -33 68 -85 91 -115 44 -55 61 -54 38 3 -14 35 -38 66
-259 344 -80 100 -174 219 -210 265 -171 219 -284 358 -292 358 -4 0 -8 -13
-8 -28z"/>
<path d="M3650 3629 c0 -23 467 -617 486 -618 7 -1 14 7 16 17 4 12 -18 47
-63 103 -38 46 -146 182 -241 301 -95 119 -179 217 -185 217 -7 1 -13 -8 -13
-20z"/>
<path d="M4825 3548 c8 -45 38 -88 225 -323 102 -129 255 -323 405 -514 33
-43 77 -97 97 -122 l38 -44 0 41 c0 38 -10 54 -102 170 -56 71 -154 194 -217
274 -63 80 -131 165 -151 190 -20 25 -94 118 -164 208 -70 89 -129 162 -132
162 -3 0 -3 -19 1 -42z"/>
<path d="M3640 3551 c0 -5 -2 -16 -5 -24 -3 -7 14 -38 38 -68 24 -30 133 -168
242 -306 108 -139 201 -250 206 -247 21 12 6 54 -38 111 -138 174 -436 543
-439 543 -2 0 -4 -4 -4 -9z"/>
<path d="M3620 3442 c0 -6 -2 -17 -5 -25 -6 -15 96 -147 330 -427 39 -47 89
-109 110 -137 22 -29 43 -53 47 -53 4 0 8 17 8 38 -1 33 -23 64 -233 321 -214
263 -257 310 -257 283z"/>
<path d="M4845 3400 c3 -19 19 -54 33 -77 22 -34 335 -429 501 -632 51 -62
132 -165 193 -243 29 -37 53 -66 55 -64 2 2 1 22 -3 44 -7 43 -24 66 -459 603
-77 95 -180 222 -229 283 -48 61 -90 113 -93 116 -3 3 -2 -11 2 -30z"/>
<path d="M3600 3332 c0 -22 28 -65 116 -178 63 -82 170 -220 237 -306 67 -87
125 -154 128 -150 29 32 18 49 -220 352 -132 168 -245 306 -250 308 -6 2 -11
-9 -11 -26z"/>
<path d="M3585 3246 c-3 -9 -7 -22 -9 -29 -4 -13 26 -54 164 -223 36 -45 103
-127 150 -185 46 -57 87 -106 90 -109 3 -3 21 -25 40 -50 18 -25 37 -49 42
-54 4 -6 8 8 8 30 0 36 -17 60 -216 309 -282 352 -263 330 -269 311z"/>
<path d="M4876 3228 c7 -35 21 -61 51 -93 10 -11 40 -48 66 -82 26 -34 53 -68
60 -75 7 -7 34 -41 60 -75 26 -34 53 -68 60 -75 7 -7 34 -41 60 -75 26 -34 53
-68 60 -75 7 -7 34 -41 60 -75 26 -34 53 -68 60 -75 7 -7 36 -44 66 -82 29
-38 61 -78 71 -90 10 -11 37 -45 60 -74 23 -30 44 -51 47 -49 13 14 -23 92
-70 149 -92 115 -570 709 -634 789 -75 93 -85 101 -77 57z"/>
<path d="M3563 3134 c-3 -8 -1 -25 5 -37 7 -17 885 -1121 922 -1160 4 -5 19
-7 34 -5 25 3 17 15 -146 219 -281 350 -289 360 -304 366 -8 3 -14 11 -14 19
0 12 -476 614 -486 614 -3 0 -7 -7 -11 -16z"/>
<path d="M4893 3095 c3 -11 8 -32 11 -48 7 -28 25 -51 390 -501 277 -341 355
-437 372 -460 19 -28 25 -16 13 28 -7 26 -124 179 -376 494 -201 251 -377 468
-390 482 -22 22 -24 23 -20 5z"/>
<path d="M3544 3026 c-6 -25 -27 2 644 -838 168 -212 209 -258 230 -258 16 0
22 4 19 14 -3 7 -124 161 -269 341 -144 180 -274 342 -288 359 -154 196 -324
406 -326 406 -2 0 -6 -11 -10 -24z"/>
<path d="M4924 2948 c3 -13 6 -33 6 -45 0 -13 66 -104 167 -230 92 -114 169
-210 173 -213 3 -3 27 -32 52 -65 25 -33 54 -70 64 -82 11 -12 89 -109 174
-217 85 -107 156 -194 157 -192 2 1 -4 25 -12 52 -11 34 -45 86 -116 174 -55
69 -125 157 -154 195 -181 236 -506 645 -512 645 -3 0 -3 -10 1 -22z"/>
<path d="M3526 2934 c-10 -26 -7 -38 17 -64 12 -14 41 -50 64 -80 23 -30 50
-64 60 -75 10 -11 37 -43 58 -71 100 -129 521 -652 549 -681 27 -30 66 -45 66
-25 0 4 -17 28 -38 54 -20 25 -59 75 -87 110 -170 216 -676 848 -679 848 -2 0
-7 -7 -10 -16z"/>
<path d="M3510 2818 c0 -27 23 -59 285 -388 433 -546 394 -500 432 -500 41 0
42 -2 -47 105 -110 134 -202 245 -281 341 -229 280 -337 411 -361 438 l-27 31
-1 -27z"/>
<path d="M4957 2748 c3 -19 36 -71 78 -123 39 -49 188 -236 330 -415 309 -389
366 -459 374 -464 3 -2 4 15 3 38 -4 47 -26 76 -536 701 -54 66 -129 159 -168
208 -38 48 -74 87 -79 87 -4 0 -6 -15 -2 -32z"/>
<path d="M3490 2718 c0 -28 41 -85 266 -368 363 -459 329 -420 369 -420 l35 0
-102 128 c-214 269 -249 313 -397 500 -84 105 -157 192 -162 192 -5 0 -9 -15
-9 -32z"/>
<path d="M3475 2647 c-3 -9 -7 -23 -9 -31 -4 -13 32 -64 156 -221 86 -108 252
-320 308 -393 48 -62 59 -71 88 -72 17 0 32 3 32 6 0 4 -24 37 -53 73 -30 36
-154 194 -277 351 -264 338 -238 307 -245 287z"/>
<path d="M4986 2631 c-20 -31 10 -89 101 -201 52 -63 155 -189 228 -280 145
-181 261 -324 287 -355 10 -11 45 -55 78 -97 34 -43 66 -78 71 -78 5 0 9 11 9
24 0 16 -48 85 -141 202 -77 99 -167 213 -199 254 -98 126 -412 524 -420 533
-4 5 -11 4 -14 -2z"/>
<path d="M3458 2534 c-22 -21 11 -71 228 -340 130 -162 239 -296 243 -299 5
-2 13 6 19 19 9 21 1 35 -90 147 -55 68 -151 187 -213 264 -152 189 -179 218
-187 209z"/>
<path d="M4145 2510 c-5 -8 110 -162 207 -275 9 -11 30 -36 45 -56 65 -85 148
-186 176 -216 30 -32 67 -44 67 -22 0 9 -180 237 -382 484 -71 87 -99 108
-113 85z"/>
<path d="M4240 2510 c0 -9 184 -244 262 -335 20 -24 63 -77 138 -174 40 -51
61 -70 79 -71 15 0 21 5 18 13 -5 13 -287 371 -399 505 -36 43 -67 72 -79 72
-10 0 -19 -5 -19 -10z"/>
<path d="M4336 2508 c4 -7 77 -101 163 -208 207 -261 223 -282 243 -305 9 -11
25 -31 35 -43 13 -17 27 -23 45 -20 25 3 21 10 -94 153 -66 83 -129 161 -141
175 -12 14 -64 78 -116 143 -73 92 -99 117 -118 117 -17 0 -22 -4 -17 -12z"/>
<path d="M4430 2513 c0 -4 73 -98 161 -208 89 -110 193 -239 232 -287 58 -74
75 -88 99 -88 15 0 28 3 28 8 0 4 -39 55 -86 112 -47 58 -119 146 -159 195
-210 259 -220 270 -248 273 -15 2 -27 0 -27 -5z"/>
<path d="M4537 2513 c-3 -5 55 -85 129 -178 75 -94 177 -223 227 -287 84 -107
95 -117 125 -118 l33 0 -23 29 c-13 16 -78 98 -145 182 -258 326 -299 374
-320 377 -12 2 -23 -1 -26 -5z"/>
<path d="M4630 2514 c0 -3 12 -21 28 -39 15 -17 70 -87 122 -154 52 -68 115
-149 140 -181 25 -31 73 -94 107 -138 34 -44 66 -82 71 -84 8 -3 105 -121 212
-258 25 -32 88 -111 140 -176 53 -66 120 -149 149 -186 38 -50 59 -68 76 -68
13 0 26 4 29 8 3 5 -223 294 -502 643 -467 584 -510 634 -539 637 -18 2 -33 0
-33 -4z"/>
<path d="M4727 2507 c4 -7 237 -298 517 -645 463 -576 511 -632 538 -632 22 0
27 3 21 14 -4 7 -235 297 -513 645 -486 608 -505 631 -538 631 -25 0 -31 -3
-25 -13z"/>
<path d="M4836 2511 c-7 -11 969 -1241 985 -1241 29 0 -8 79 -79 168 -38 48
-131 166 -207 262 -76 96 -171 216 -210 265 -39 50 -114 144 -166 210 -270
341 -273 345 -296 345 -12 0 -24 -4 -27 -9z"/>
<path d="M4932 2502 c7 -10 74 -94 148 -187 209 -261 485 -609 595 -749 55
-69 103 -126 108 -126 22 0 -5 72 -45 122 -24 30 -117 148 -208 263 -167 212
-343 434 -477 603 -64 80 -78 92 -104 92 -27 0 -29 -2 -17 -18z"/>
<path d="M3436 2435 c-13 -34 -4 -52 62 -135 266 -333 415 -515 423 -518 5 -2
9 10 9 26 0 32 3 28 -155 227 -61 77 -156 196 -210 265 -128 163 -121 155
-129 135z"/>
<path d="M3410 2310 c0 -19 79 -122 382 -497 55 -68 103 -123 108 -123 5 0 11
9 15 20 6 20 -5 35 -164 229 -103 127 -200 247 -256 316 -60 74 -85 91 -85 55z"/>
<path d="M3400 2232 c0 -6 -2 -17 -5 -24 -3 -8 40 -72 102 -149 140 -176 311
-394 347 -441 16 -21 32 -38 37 -38 19 0 7 56 -17 85 -14 17 -119 151 -234
300 -196 252 -230 292 -230 267z"/>
<path d="M3377 2108 c-5 -16 7 -39 46 -89 57 -72 212 -264 237 -291 8 -10 56
-69 105 -132 50 -63 95 -113 100 -112 6 1 11 12 13 23 4 23 -54 100 -313 414
-61 74 -123 151 -139 172 -33 43 -41 45 -49 15z"/>
<path d="M3362 2000 c2 -23 65 -109 233 -320 127 -159 235 -289 241 -289 7 -1
14 8 17 18 3 14 -26 59 -106 158 -128 160 -276 342 -294 361 -7 7 -27 33 -44
57 -38 53 -51 57 -47 15z"/>
<path d="M3340 1907 c0 -31 29 -72 241 -336 133 -166 245 -298 250 -295 17 10
9 46 -19 83 -52 67 -286 365 -370 471 -46 58 -88 107 -93 108 -5 2 -9 -12 -9
-31z"/>
<path d="M3321 1808 c-10 -27 -6 -34 153 -227 61 -73 129 -157 151 -185 92
-119 138 -167 159 -164 12 2 21 8 21 14 0 7 -83 114 -185 240 -102 125 -204
251 -227 280 -53 66 -61 71 -72 42z"/>
<path d="M5130 1791 c0 -35 11 -53 88 -148 327 -405 333 -413 358 -413 13 0
24 3 24 8 0 7 -92 126 -269 346 -53 65 -117 147 -144 182 -26 35 -50 64 -52
64 -3 0 -5 -18 -5 -39z"/>
<path d="M3304 1705 c-3 -14 -4 -31 -1 -37 5 -12 272 -341 333 -410 21 -25 74
-40 74 -22 0 4 -35 50 -77 102 -95 116 -158 195 -241 301 -34 44 -66 83 -72
86 -5 3 -12 -6 -16 -20z"/>
<path d="M5163 1621 c4 -17 44 -79 89 -137 46 -59 108 -139 138 -178 53 -68
82 -88 101 -69 8 8 -302 405 -323 412 -7 2 -9 -7 -5 -28z"/>
<path d="M3284 1596 c-5 -20 14 -48 106 -162 62 -77 125 -154 141 -171 28 -33
62 -43 74 -23 4 6 -49 77 -117 158 -68 81 -136 164 -152 185 -33 43 -43 46
-52 13z"/>
<path d="M3270 1496 c0 -36 178 -266 207 -266 12 0 24 4 27 9 7 11 -210 281
-224 281 -6 0 -10 -11 -10 -24z"/>
<path d="M5184 1467 c8 -28 38 -75 77 -122 35 -43 70 -86 78 -96 15 -21 51
-26 51 -8 0 12 -179 237 -205 259 -13 11 -13 6 -1 -33z"/>
<path d="M3257 1403 c-15 -14 -5 -36 49 -103 47 -59 61 -70 86 -70 23 0 28 3
21 13 -51 66 -136 167 -142 167 -4 0 -11 -3 -14 -7z"/>
<path d="M5215 1303 c8 -47 31 -73 62 -73 31 0 29 9 -13 63 -45 57 -59 60 -49
10z"/>
<path d="M3233 1294 c-12 -31 30 -73 62 -60 16 6 15 9 -7 38 -30 39 -46 45
-55 22z"/>
<path d="M6302 5398 c-9 -9 -12 -505 -12 -2170 0 -2073 1 -2158 18 -2167 10
-5 23 -25 29 -43 6 -18 39 -109 73 -203 33 -93 70 -197 81 -230 11 -33 28 -66
37 -73 12 -9 111 -12 413 -12 219 0 404 3 413 6 14 6 16 76 16 694 l0 687 218
6 c214 6 387 27 507 61 344 97 546 284 627 581 22 78 22 94 25 820 3 650 2
749 -12 820 -9 44 -54 181 -99 305 -46 124 -93 264 -104 312 -87 366 -398 562
-966 608 -190 15 -1249 13 -1264 -2z m1395 -71 c219 -37 365 -84 489 -158 89
-53 199 -168 239 -250 18 -38 37 -84 40 -102 4 -17 12 -38 19 -46 14 -18 21
-1339 7 -1491 -12 -135 -23 -176 -78 -295 -80 -172 -256 -315 -472 -385 -189
-61 -331 -80 -602 -80 l-219 0 -2 -698 -3 -697 -380 0 -380 0 -3 2113 -2 2114
627 -5 c507 -3 646 -7 720 -20z"/>
<path d="M6506 5251 c-3 -5 48 -76 115 -158 66 -81 173 -213 237 -293 150
-188 142 -180 142 -135 0 32 -20 61 -160 238 -242 304 -288 357 -310 357 -10
0 -21 -4 -24 -9z"/>
<path d="M6610 5246 c0 -8 4 -18 10 -21 5 -3 36 -41 69 -83 32 -42 67 -87 77
-99 16 -18 84 -104 204 -258 23 -29 28 -31 44 -20 16 13 8 25 -100 162 -243
305 -266 333 -285 333 -11 0 -19 -6 -19 -14z"/>
<path d="M6707 5253 c-3 -5 46 -71 109 -148 63 -77 128 -157 144 -178 67 -89
133 -157 152 -157 11 0 18 4 16 9 -5 15 -318 411 -354 448 -31 32 -57 42 -67
26z"/>
<path d="M6815 5250 c-4 -6 45 -74 109 -153 63 -78 125 -155 138 -171 104
-128 126 -151 151 -154 15 -2 27 0 27 3 0 7 -257 328 -343 428 -48 55 -69 68
-82 47z"/>
<path d="M6910 5247 c0 -7 10 -23 23 -37 12 -14 44 -55 72 -90 27 -36 100
-129 163 -207 99 -126 117 -143 143 -143 16 0 29 3 29 8 0 6 -291 368 -365
455 -24 28 -65 37 -65 14z"/>
<path d="M7010 5249 c0 -5 68 -99 152 -207 221 -287 208 -272 238 -272 54 0
64 -17 -179 281 -74 90 -145 174 -158 187 -25 23 -53 29 -53 11z"/>
<path d="M7115 5251 c-6 -11 29 -60 144 -201 34 -41 95 -118 137 -172 41 -53
86 -103 99 -112 24 -16 55 -21 55 -10 0 18 -395 499 -412 502 -9 2 -19 -2 -23
-7z"/>
<path d="M7206 5252 c-3 -5 8 -23 25 -41 16 -18 46 -54 67 -80 81 -104 166
-208 196 -241 18 -19 51 -60 74 -92 23 -31 65 -76 93 -100 58 -49 109 -117
109 -146 0 -18 79 -126 192 -262 20 -25 121 -148 223 -275 103 -126 191 -231
196 -233 5 -2 9 11 9 30 0 36 27 0 -515 673 -115 143 -292 364 -393 490 -102
127 -196 242 -210 258 -25 26 -56 35 -66 19z"/>
<path d="M7300 5249 c0 -6 42 -63 94 -127 92 -116 377 -469 525 -651 42 -51
96 -119 121 -151 136 -174 333 -415 341 -418 5 -2 9 13 9 33 0 29 -11 50 -63
113 -35 42 -256 318 -491 612 -235 294 -443 550 -462 568 -33 31 -74 43 -74
21z"/>
<path d="M7400 5249 c0 -7 17 -32 38 -57 20 -25 69 -85 107 -132 39 -48 194
-239 345 -425 151 -185 296 -365 323 -398 26 -34 65 -80 87 -102 22 -22 40
-45 40 -50 1 -12 35 -55 44 -55 3 0 6 14 6 31 0 26 -45 87 -257 352 -142 177
-343 427 -447 557 -103 129 -200 247 -214 263 -26 27 -72 37 -72 16z"/>
<path d="M7500 5246 c0 -5 204 -260 359 -449 92 -112 184 -227 345 -427 33
-41 78 -96 100 -122 23 -26 51 -59 63 -75 l22 -28 1 35 c0 32 -42 88 -411 550
-386 484 -413 515 -445 518 -19 2 -34 1 -34 -2z"/>
<path d="M6450 5212 c0 -18 17 -48 48 -87 27 -33 120 -150 207 -260 87 -110
184 -231 214 -270 31 -38 61 -76 68 -85 10 -12 12 -8 13 25 0 38 -16 61 -265
373 -146 183 -269 332 -275 332 -5 0 -10 -12 -10 -28z"/>
<path d="M7612 5223 c13 -16 374 -461 493 -608 28 -34 65 -80 83 -101 47 -56
153 -186 179 -220 l22 -29 0 36 c1 39 14 22 -380 509 -69 85 -172 212 -228
283 -106 131 -124 147 -162 147 -20 0 -21 -2 -7 -17z"/>
<path d="M7740 5214 c0 -6 82 -114 103 -136 7 -7 35 -42 61 -78 27 -36 54 -69
61 -75 6 -5 31 -36 54 -69 24 -32 51 -66 61 -76 10 -10 37 -43 60 -75 23 -32
50 -65 59 -74 18 -18 124 -155 156 -202 26 -37 35 -37 35 1 0 25 -55 100 -302
410 -236 295 -308 379 -325 380 -13 0 -23 -3 -23 -6z"/>
<path d="M7871 5155 c19 -27 58 -74 87 -106 28 -31 52 -60 52 -64 0 -5 26 -38
58 -74 32 -36 65 -77 74 -91 8 -14 38 -51 64 -82 27 -32 76 -91 109 -132 33
-41 63 -75 68 -75 4 -1 7 14 7 32 -1 27 -36 75 -226 307 -259 316 -259 316
-298 326 l-29 7 34 -48z"/>
<path d="M8030 5084 c121 -154 352 -444 354 -444 1 0 -1 20 -4 45 -4 39 -24
69 -151 232 -81 103 -156 196 -166 205 -11 10 -35 21 -53 25 l-34 6 54 -69z"/>
<path d="M6450 5102 c0 -27 11 -46 61 -107 10 -11 49 -60 88 -110 120 -152
194 -244 254 -317 31 -39 57 -73 57 -77 1 -3 21 -28 45 -56 l45 -50 0 35 c0
31 -33 76 -266 370 -146 184 -270 337 -275 338 -5 2 -9 -10 -9 -26z"/>
<path d="M8147 5054 c17 -21 55 -67 84 -100 30 -34 67 -78 82 -98 16 -21 31
-35 34 -33 2 3 -8 30 -23 61 -27 56 -134 169 -183 196 -23 12 -23 11 6 -26z"/>
<path d="M6450 4972 c0 -18 16 -49 43 -84 61 -81 440 -557 476 -598 l30 -35 1
38 c0 34 -13 54 -113 180 -63 78 -182 229 -266 335 -85 105 -157 192 -162 192
-5 0 -9 -13 -9 -28z"/>
<path d="M6450 4844 c0 -31 31 -75 273 -380 264 -334 272 -343 275 -308 2 22
-4 46 -15 63 -37 57 -517 661 -525 661 -4 0 -8 -16 -8 -36z"/>
<path d="M6450 4734 c0 -33 9 -51 48 -100 26 -32 148 -186 271 -341 123 -156
225 -283 227 -283 2 0 4 17 4 38 0 33 -26 69 -266 372 -146 184 -270 339 -275
345 -5 5 -9 -6 -9 -31z"/>
<path d="M7120 3935 l0 -725 165 0 c153 0 169 2 227 25 71 29 92 45 129 95 62
83 63 90 67 613 2 324 0 495 -8 530 -29 139 -136 186 -422 187 l-158 0 0 -725z
m508 99 l22 -6 0 -272 c0 -315 -4 -339 -76 -410 -43 -43 -92 -66 -171 -80
l-33 -6 0 390 0 390 118 0 c64 0 127 -3 140 -6z"/>
<path d="M6450 4602 c0 -29 45 -93 168 -241 20 -25 51 -63 67 -86 57 -78 306
-395 311 -395 2 0 4 18 4 40 0 37 -18 62 -266 372 -147 183 -270 335 -275 336
-5 2 -9 -10 -9 -26z"/>
<path d="M6450 4470 c0 -11 33 -63 73 -114 234 -302 459 -586 467 -591 6 -4
10 8 10 29 0 31 -30 73 -262 363 -145 179 -269 328 -275 331 -8 2 -13 -5 -13
-18z"/>
<path d="M7790 4424 c0 -43 -1 -41 280 -389 62 -77 129 -159 149 -181 20 -23
48 -58 62 -77 31 -43 97 -117 104 -117 3 0 5 14 5 31 0 31 -31 73 -353 469
-38 47 -106 131 -151 187 -44 56 -84 103 -88 103 -5 0 -8 -12 -8 -26z"/>
<path d="M6450 4353 c0 -21 37 -75 156 -223 86 -107 173 -217 194 -245 21 -27
51 -64 68 -82 16 -17 39 -46 50 -65 11 -18 34 -46 51 -62 l31 -30 0 31 c0 21
-13 47 -43 84 -24 30 -95 119 -158 199 -232 294 -330 415 -340 418 -5 2 -9 -9
-9 -25z"/>
<path d="M7793 4284 c4 -24 30 -65 84 -131 43 -52 89 -109 103 -126 44 -56
223 -278 290 -360 36 -44 76 -96 90 -115 l25 -36 3 37 c3 34 -13 57 -289 402
-160 201 -296 365 -301 365 -7 0 -8 -14 -5 -36z"/>
<path d="M6456 4253 c-3 -3 -6 -18 -6 -33 0 -24 63 -108 369 -490 33 -41 83
-104 111 -140 71 -90 70 -89 70 -49 0 31 -25 67 -192 280 -106 134 -206 261
-223 283 -105 134 -123 155 -129 149z"/>
<path d="M7793 4167 c5 -35 46 -96 124 -190 21 -25 67 -82 103 -127 36 -46 90
-113 120 -150 30 -37 97 -122 149 -189 52 -67 96 -121 98 -121 2 0 3 18 3 40
0 37 -20 64 -290 402 -160 200 -296 365 -302 367 -7 2 -9 -8 -5 -32z"/>
<path d="M6450 4101 c0 -30 0 -30 403 -533 69 -86 131 -159 136 -163 7 -4 11
5 11 22 0 20 -22 55 -73 118 -161 201 -415 522 -437 553 -29 40 -40 41 -40 3z"/>
<path d="M7790 4047 c0 -27 34 -80 104 -162 29 -33 59 -71 68 -85 9 -14 30
-40 47 -58 16 -17 55 -65 86 -105 31 -39 82 -104 113 -143 31 -39 79 -98 106
-132 27 -34 53 -62 58 -62 4 0 8 12 8 28 0 21 -44 82 -181 252 -100 124 -229
285 -287 358 -58 72 -110 132 -114 132 -4 0 -8 -10 -8 -23z"/>
<path d="M6450 3979 c0 -30 20 -63 95 -150 16 -20 93 -116 170 -214 174 -221
276 -349 281 -354 2 -2 4 14 4 36 0 34 -9 52 -55 109 -85 107 -178 224 -334
422 -80 100 -148 182 -153 182 -4 0 -8 -14 -8 -31z"/>
<path d="M7794 3909 c3 -18 32 -64 64 -102 31 -39 80 -98 107 -132 28 -34 58
-70 68 -80 10 -10 29 -34 42 -54 13 -20 37 -51 55 -70 17 -19 49 -57 70 -85
21 -28 50 -64 65 -81 15 -16 40 -49 57 -72 33 -49 48 -54 48 -17 0 18 -76 121
-277 374 -153 192 -284 349 -292 349 -10 1 -12 -7 -7 -30z"/>
<path d="M6450 3849 c0 -25 19 -56 98 -152 53 -67 173 -216 265 -331 93 -116
173 -215 178 -220 5 -6 9 4 9 25 0 29 -15 53 -83 139 -46 58 -166 209 -266
335 -101 127 -187 232 -192 233 -5 2 -9 -11 -9 -29z"/>
<path d="M7790 3797 c0 -35 25 -72 175 -257 77 -95 188 -232 246 -304 58 -72
109 -131 115 -131 5 0 10 10 12 22 2 16 -55 95 -214 295 -317 399 -317 398
-326 398 -4 0 -8 -10 -8 -23z"/>
<path d="M6457 3744 c-23 -24 -12 -40 353 -494 60 -74 194 -243 300 -375 150
-189 196 -241 217 -243 19 -3 24 0 20 11 -3 8 -61 84 -129 167 -68 84 -147
182 -175 219 -29 36 -80 100 -113 141 -62 78 -149 187 -235 294 -27 35 -86
108 -130 162 -44 54 -85 104 -90 112 -6 7 -14 10 -18 6z"/>
<path d="M7791 3678 c1 -34 10 -50 59 -108 25 -29 54 -65 65 -81 78 -107 370
-459 379 -456 32 11 8 50 -145 239 -89 110 -203 252 -252 314 -50 63 -94 114
-99 114 -4 0 -8 -10 -7 -22z"/>
<path d="M6450 3601 c0 -26 12 -47 62 -106 25 -31 98 -121 148 -185 25 -32 61
-77 81 -101 20 -24 132 -164 249 -311 193 -244 215 -268 242 -268 23 0 28 3
21 13 -45 56 -465 585 -503 632 -27 33 -101 126 -165 208 -64 81 -121 147
-126 147 -5 0 -9 -13 -9 -29z"/>
<path d="M7790 3541 c0 -17 8 -39 18 -49 9 -9 39 -46 66 -82 27 -36 54 -69 60
-75 6 -5 27 -30 46 -55 19 -25 63 -78 97 -118 35 -40 63 -76 63 -80 0 -4 23
-31 49 -61 35 -38 54 -52 66 -47 9 3 15 12 13 20 -5 24 -447 568 -465 574 -9
2 -13 -7 -13 -27z"/>
<path d="M6450 3473 c1 -21 64 -107 258 -350 141 -177 288 -360 325 -407 59
-74 72 -86 99 -86 l30 0 -34 43 c-19 23 -175 219 -347 435 -172 215 -317 392
-322 392 -5 0 -9 -12 -9 -27z"/>
<path d="M7776 3455 c-3 -9 -6 -23 -6 -32 0 -11 235 -313 260 -333 3 -3 27
-32 53 -65 87 -112 103 -129 121 -122 9 4 16 11 16 16 0 9 -75 104 -338 431
-47 58 -88 109 -92 113 -4 5 -10 1 -14 -8z"/>
<path d="M6450 3356 c0 -16 35 -69 97 -148 121 -153 236 -300 382 -485 56 -71
79 -93 97 -93 13 0 24 3 24 6 0 7 -93 126 -268 345 -24 30 -105 132 -180 227
-75 94 -140 172 -144 172 -4 0 -8 -11 -8 -24z"/>
<path d="M7745 3357 c-6 -21 8 -44 93 -149 121 -150 189 -236 242 -305 39 -51
62 -64 75 -43 4 7 -304 407 -396 514 -4 5 -11 -3 -14 -17z"/>
<path d="M7707 3293 c-4 -3 -7 -14 -7 -23 0 -16 324 -431 357 -457 16 -13 43
-7 43 10 0 6 -26 42 -58 81 -32 39 -113 139 -180 222 -130 162 -145 178 -155
167z"/>
<path d="M6450 3227 c0 -36 -16 -14 363 -486 183 -228 188 -233 185 -193 -3
37 -31 76 -266 376 -145 185 -268 336 -273 336 -5 0 -9 -15 -9 -33z"/>
<path d="M7647 3227 c-17 -11 -2 -33 164 -240 100 -125 187 -227 193 -227 48
1 36 21 -143 246 -101 126 -186 230 -190 232 -4 1 -15 -4 -24 -11z"/>
<path d="M7592 3186 l-23 -12 39 -50 c49 -61 108 -137 218 -281 81 -106 102
-123 130 -105 8 4 -44 79 -148 212 -88 113 -167 215 -176 227 -15 19 -20 20
-40 9z"/>
<path d="M7508 3153 c-10 -2 -18 -9 -18 -14 0 -5 28 -42 63 -82 34 -39 71 -84
82 -98 19 -25 162 -203 195 -241 16 -20 28 -22 49 -9 11 7 -2 30 -65 108 -44
54 -124 153 -179 221 -54 67 -101 121 -104 121 -3 -1 -14 -3 -23 -6z"/>
<path d="M6450 3107 c0 -40 -8 -29 284 -393 295 -369 266 -336 266 -293 0 39
-3 43 -207 300 -59 75 -157 200 -218 277 -60 77 -113 141 -117 141 -5 1 -8
-14 -8 -32z"/>
<path d="M7417 3132 c-18 -8 -13 -16 173 -252 25 -31 71 -91 104 -134 58 -76
69 -83 95 -67 17 11 21 5 -124 191 -67 85 -141 181 -164 213 -44 57 -51 62
-84 49z"/>
<path d="M7320 3116 c0 -8 24 -43 53 -77 28 -34 75 -90 102 -124 166 -207 201
-245 223 -245 12 0 22 3 22 8 0 4 -79 106 -176 227 -130 163 -182 221 -200
223 -16 2 -24 -2 -24 -12z"/>
<path d="M7020 3114 c0 -3 84 -111 187 -240 145 -181 193 -234 210 -234 13 0
23 6 23 13 0 6 -31 48 -68 93 -37 44 -120 147 -185 227 -94 116 -124 147 -143
147 -13 0 -24 -3 -24 -6z"/>
<path d="M7111 3113 c0 -4 25 -37 55 -73 30 -36 116 -140 190 -232 108 -133
141 -168 160 -168 13 0 24 5 24 10 0 9 -95 130 -317 405 -39 48 -55 61 -81 63
-18 2 -32 0 -31 -5z"/>
<path d="M7210 3116 c0 -4 350 -436 376 -465 2 -2 15 0 29 3 l26 7 -33 43
c-60 80 -280 350 -311 384 -21 21 -40 32 -59 32 -15 0 -28 -2 -28 -4z"/>
<path d="M6457 3003 c-23 -23 5 -69 173 -278 31 -38 123 -155 205 -260 81
-104 152 -194 156 -199 5 -6 9 7 9 31 0 37 -12 56 -146 224 -80 101 -162 204
-182 229 -21 25 -75 93 -121 153 -46 59 -85 107 -86 107 -1 0 -5 -3 -8 -7z"/>
<path d="M6457 2884 c-24 -24 -2 -66 101 -195 144 -181 273 -344 361 -456 40
-51 74 -93 77 -93 2 0 4 17 4 38 0 33 -15 56 -127 197 -71 88 -188 237 -262
330 -74 94 -137 173 -141 178 -3 4 -9 4 -13 1z"/>
<path d="M6454 2745 c-12 -30 7 -59 161 -252 82 -103 201 -253 265 -333 l115
-145 3 38 c3 35 -9 52 -215 308 -120 148 -239 297 -264 330 -59 77 -57 75 -65
54z"/>
<path d="M6457 2634 c-25 -25 -1 -67 146 -250 83 -104 203 -255 266 -335 63
-79 118 -148 122 -153 5 -6 9 8 9 31 0 35 -9 52 -71 129 -39 49 -92 115 -117
148 -114 143 -171 213 -224 278 -32 39 -58 73 -58 77 -1 14 -66 81 -73 75z"/>
<path d="M6450 2482 c0 -20 25 -60 91 -142 50 -63 141 -178 202 -255 270 -341
252 -320 255 -286 4 34 -12 59 -123 196 -36 44 -102 127 -148 184 -45 57 -106
134 -135 170 -29 36 -68 87 -88 114 -41 54 -54 59 -54 19z"/>
<path d="M6455 2377 c-4 -9 -5 -27 -3 -40 2 -12 126 -175 274 -362 267 -337
269 -339 272 -302 4 43 18 23 -316 440 -105 131 -197 248 -205 260 -14 20 -16
21 -22 4z"/>
<path d="M6450 2243 c0 -39 14 -59 273 -382 252 -316 272 -339 275 -310 2 21
-5 43 -22 67 -36 52 -483 623 -507 647 -19 19 -19 19 -19 -22z"/>
<path d="M6457 2133 c-23 -22 -1 -65 94 -183 55 -69 170 -215 257 -324 86
-109 165 -208 174 -220 17 -21 17 -20 18 20 0 38 -10 54 -122 195 -67 85 -164
208 -217 274 -131 166 -194 245 -196 245 -1 0 -5 -3 -8 -7z"/>
<path d="M6457 2004 c-18 -18 -1 -50 76 -146 45 -58 103 -132 128 -164 152
-195 313 -401 325 -414 12 -12 14 -9 14 25 0 37 -20 64 -261 365 -296 369
-273 342 -282 334z"/>
<path d="M6450 1857 c0 -21 28 -60 190 -267 25 -31 73 -93 107 -136 157 -201
179 -222 205 -196 7 7 -29 60 -112 164 -68 84 -128 158 -135 163 -6 6 -30 35
-53 67 -23 31 -53 68 -66 83 -14 15 -45 54 -68 86 -45 62 -68 74 -68 36z"/>
<path d="M6452 1732 c5 -47 333 -469 371 -477 32 -8 42 -2 33 17 -12 26 -382
482 -395 486 -9 3 -11 -5 -9 -26z"/>
<path d="M6450 1613 c0 -21 33 -70 125 -188 122 -157 155 -189 176 -168 7 7
-38 70 -136 194 -81 101 -151 186 -156 187 -5 2 -9 -9 -9 -25z"/>
<path d="M6450 1488 c0 -28 15 -52 81 -132 80 -97 99 -113 118 -101 10 6 -171
256 -190 263 -5 2 -9 -12 -9 -30z"/>
<path d="M6450 1362 c0 -27 36 -87 62 -104 19 -11 48 -10 48 3 0 15 -89 129
-101 129 -5 0 -9 -13 -9 -28z"/>
<path d="M9212 5398 c-19 -19 -17 -4338 2 -4338 13 0 26 -34 160 -405 l54
-150 1026 -3 1026 -2 0 392 c0 391 0 393 -24 458 -77 207 -166 475 -166 499 0
17 -7 31 -16 35 -9 3 -236 6 -505 6 l-489 0 0 175 0 175 560 0 560 0 0 408 0
408 -66 184 c-36 102 -79 221 -95 266 -16 44 -29 99 -29 122 l0 42 -465 0
-465 0 0 175 0 175 600 0 600 0 0 390 0 391 -34 97 c-19 53 -62 173 -95 266
-34 93 -61 181 -61 196 0 14 -5 31 -12 38 -17 17 -2049 17 -2066 0z m2026
-400 l2 -348 -605 0 -605 0 0 -520 0 -520 558 -2 557 -3 3 -372 2 -373 -560 0
-560 0 0 -515 0 -515 593 0 c325 0 598 -4 605 -8 9 -7 12 -84 10 -353 l-3
-344 -985 0 -985 0 -3 2100 c-1 1155 0 2106 3 2113 3 10 206 12 987 10 l983
-3 3 -347z"/>
<path d="M9372 5230 c3 -9 376 -481 439 -556 20 -23 52 -63 70 -88 38 -53 49
-57 49 -17 0 22 -28 64 -112 171 -62 78 -133 168 -158 200 -224 288 -234 300
-263 300 -16 0 -27 -4 -25 -10z"/>
<path d="M9465 5230 c27 -43 454 -567 459 -563 3 4 6 19 6 34 0 21 -39 78
-157 226 -86 109 -177 224 -201 256 -39 49 -50 57 -79 57 -20 0 -32 -4 -28
-10z"/>
<path d="M9566 5228 c4 -7 33 -44 64 -83 31 -38 90 -113 131 -165 199 -252
188 -240 219 -240 17 0 30 3 30 6 0 4 -88 116 -195 250 -178 222 -198 244
-226 244 -21 0 -28 -4 -23 -12z"/>
<path d="M9660 5233 c0 -5 35 -48 76 -98 41 -49 110 -133 152 -185 130 -162
174 -210 192 -210 44 0 47 -5 -195 290 -82 100 -155 189 -161 196 -12 14 -64
20 -64 7z"/>
<path d="M9760 5231 c0 -6 5 -13 10 -16 6 -3 36 -38 67 -78 32 -39 64 -78 73
-87 9 -9 34 -39 56 -67 156 -199 195 -243 219 -243 14 0 25 4 25 9 0 5 -26 40
-57 78 -32 38 -85 103 -118 144 -33 40 -83 100 -110 134 -28 33 -63 77 -79 98
-21 28 -36 37 -57 37 -16 0 -29 -4 -29 -9z"/>
<path d="M9871 5221 c27 -37 182 -226 193 -236 6 -5 35 -41 65 -79 109 -141
134 -166 161 -166 11 0 20 4 20 8 0 5 -90 118 -201 250 -165 199 -205 242
-226 242 -23 0 -24 -2 -12 -19z"/>
<path d="M9960 5235 c0 -7 335 -422 373 -462 31 -33 67 -44 67 -21 0 6 -26 43
-58 82 -78 94 -147 179 -245 303 -68 85 -87 102 -109 103 -16 0 -28 -2 -28 -5z"/>
<path d="M10060 5235 c0 -3 21 -31 48 -63 26 -32 85 -105 132 -163 46 -57 94
-115 106 -129 12 -14 42 -50 66 -80 31 -38 52 -56 71 -58 15 -2 27 -1 27 3 0
3 -41 56 -91 118 -50 62 -139 172 -198 244 -90 112 -110 133 -133 133 -16 0
-28 -2 -28 -5z"/>
<path d="M10166 5228 c8 -12 312 -387 371 -457 20 -23 35 -32 51 -30 19 4 -3
35 -173 249 -172 216 -199 245 -226 248 -24 3 -29 0 -23 -10z"/>
<path d="M10270 5233 c0 -6 72 -105 97 -133 7 -8 72 -89 144 -180 138 -173
144 -180 172 -180 27 0 21 13 -46 97 -34 43 -120 151 -191 241 -102 129 -133
162 -152 162 -13 0 -24 -3 -24 -7z"/>
<path d="M10386 5193 c21 -27 61 -75 89 -108 28 -33 102 -124 165 -203 88
-110 119 -142 135 -140 30 4 25 21 -32 90 -28 35 -113 141 -188 236 -131 165
-138 172 -172 172 l-35 0 38 -47z"/>
<path d="M10462 5223 c33 -39 215 -261 253 -308 22 -28 44 -55 50 -61 6 -6 28
-34 50 -62 31 -41 45 -52 68 -52 16 0 27 4 25 8 -1 4 -90 117 -196 250 -188
235 -195 242 -229 242 -33 0 -35 -1 -21 -17z"/>
<path d="M10560 5233 c0 -4 31 -44 68 -89 37 -45 103 -125 147 -179 154 -188
187 -225 206 -225 11 0 19 3 19 8 0 4 -49 70 -109 147 -278 356 -264 340 -299
343 -18 2 -32 0 -32 -5z"/>
<path d="M10659 5223 c6 -10 41 -55 78 -99 37 -45 124 -150 192 -233 115 -141
148 -169 165 -142 3 4 -80 116 -185 247 -177 222 -193 239 -226 242 -31 3 -33
1 -24 -15z"/>
<path d="M10762 5222 c7 -10 90 -112 183 -226 161 -196 170 -206 173 -176 4
36 8 30 -123 190 -55 68 -119 147 -143 176 -34 44 -48 54 -73 54 -27 0 -29 -2
-17 -18z"/>
<path d="M10870 5233 c0 -7 70 -101 92 -124 8 -8 39 -48 71 -90 77 -103 87
-111 87 -68 0 26 -12 48 -48 90 -26 31 -73 88 -105 128 -36 44 -66 71 -78 71
-10 0 -19 -3 -19 -7z"/>
<path d="M10975 5219 c11 -13 23 -28 28 -34 42 -58 110 -145 113 -145 2 0 4
15 4 33 0 42 -99 160 -139 165 l-26 4 20 -23z"/>
<path d="M11068 5212 c12 -16 28 -35 37 -42 15 -12 16 -10 13 26 -3 36 -5 39
-37 42 l-33 3 20 -29z"/>
<path d="M9370 5132 c0 -23 57 -100 270 -368 149 -186 275 -340 280 -342 27
-9 5 51 -37 105 -27 33 -97 122 -157 199 -188 239 -337 423 -346 429 -6 4 -10
-7 -10 -23z"/>
<path d="M9370 5001 c0 -22 27 -63 113 -169 61 -77 183 -228 270 -336 87 -108
163 -196 168 -196 6 0 9 13 7 29 -2 22 -80 126 -271 365 -147 185 -272 336
-278 336 -5 0 -9 -13 -9 -29z"/>
<path d="M9370 4880 c0 -21 14 -48 46 -88 25 -31 68 -84 94 -117 26 -33 128
-160 225 -282 97 -123 181 -223 186 -223 5 0 9 13 9 28 0 28 -14 48 -150 217
-27 33 -126 158 -220 278 -95 119 -176 217 -181 217 -5 0 -9 -14 -9 -30z"/>
<path d="M9370 4760 c0 -30 21 -62 148 -221 81 -102 203 -256 272 -342 68 -86
128 -157 132 -157 4 0 8 13 8 29 0 21 -18 52 -63 108 -35 43 -153 191 -262
328 -109 138 -206 259 -217 270 -18 19 -18 19 -18 -15z"/>
<path d="M9370 4641 c0 -34 29 -80 121 -191 21 -25 111 -137 200 -250 89 -113
165 -207 169 -210 3 -3 16 -20 29 -37 27 -40 41 -42 41 -5 0 31 -8 44 -100
157 -36 45 -146 182 -244 306 -99 123 -188 233 -198 244 -18 19 -18 19 -18
-14z"/>
<path d="M9370 4505 c0 -29 27 -67 193 -277 334 -422 348 -438 357 -438 18 0
10 57 -12 86 -31 40 -244 310 -287 363 -20 24 -56 69 -81 101 -83 105 -161
200 -165 200 -3 0 -5 -16 -5 -35z"/>
<path d="M9370 4383 c0 -18 17 -49 48 -87 26 -32 67 -85 92 -117 200 -255 406
-509 412 -509 4 0 8 13 8 29 0 23 -57 101 -271 370 -149 188 -275 341 -280
341 -5 0 -9 -12 -9 -27z"/>
<path d="M9370 4262 c0 -23 25 -61 107 -163 59 -74 109 -136 113 -139 3 -3 27
-33 53 -67 26 -34 53 -68 60 -75 7 -7 32 -38 54 -68 23 -30 53 -68 68 -85 15
-16 40 -49 57 -72 34 -50 48 -54 48 -15 0 22 -61 105 -271 368 -149 186 -275
341 -280 342 -5 2 -9 -10 -9 -26z"/>
<path d="M9372 4124 c3 -31 68 -118 448 -590 391 -486 448 -553 473 -554 15 0
27 3 27 6 0 5 -143 187 -322 409 -5 6 -144 180 -309 388 -165 207 -305 377
-310 377 -6 0 -9 -16 -7 -36z"/>
<path d="M9370 4016 c0 -29 12 -51 63 -114 69 -87 242 -302 445 -552 74 -91
171 -211 216 -267 67 -86 86 -103 109 -103 15 0 27 2 27 5 0 8 -839 1053 -850
1060 -6 4 -10 -9 -10 -29z"/>
<path d="M9370 3888 c0 -35 -24 -3 529 -691 154 -192 178 -217 204 -217 33 0
33 0 -42 94 -31 38 -78 97 -106 132 -82 103 -171 215 -235 294 -33 41 -87 109
-120 150 -176 221 -212 265 -221 268 -5 2 -9 -11 -9 -30z"/>
<path d="M9370 3764 c0 -31 17 -54 210 -294 73 -91 191 -238 262 -327 123
-155 132 -163 165 -163 l35 0 -19 24 c-10 13 -43 54 -74 92 -32 38 -92 112
-135 166 -44 53 -133 162 -199 243 -66 81 -144 177 -173 214 -30 36 -58 68
-63 69 -5 2 -9 -9 -9 -24z"/>
<path d="M9372 3638 c3 -32 42 -86 273 -377 149 -187 273 -340 276 -340 4 -1
9 14 11 33 3 31 -4 44 -62 114 -36 43 -99 121 -140 172 -41 51 -110 136 -154
189 -43 53 -95 116 -115 140 -20 25 -48 59 -64 75 l-27 31 2 -37z"/>
<path d="M9370 3515 c0 -31 29 -72 243 -340 133 -167 255 -320 270 -339 34
-44 47 -45 47 -7 0 23 -32 70 -142 208 -271 341 -410 513 -414 513 -2 0 -4
-16 -4 -35z"/>
<path d="M9960 3508 c1 -7 21 -38 46 -68 24 -30 71 -89 104 -131 32 -42 65
-83 73 -90 7 -8 27 -32 43 -54 16 -22 55 -73 88 -113 48 -60 63 -72 88 -72
l29 0 -45 58 c-271 343 -384 477 -404 480 -13 2 -22 -2 -22 -10z"/>
<path d="M10060 3509 c0 -9 141 -193 160 -209 3 -3 19 -23 35 -45 17 -22 72
-93 124 -157 81 -103 97 -118 123 -118 l30 0 -52 66 c-29 36 -58 73 -66 83 -7
9 -70 88 -140 176 -69 88 -138 172 -152 188 -26 27 -62 37 -62 16z"/>
<path d="M10172 3501 c2 -12 93 -134 202 -271 159 -200 204 -250 222 -250 13
0 24 3 24 6 0 3 -21 32 -47 64 -27 31 -89 111 -140 176 -164 213 -228 289
-246 292 -14 3 -18 -1 -15 -17z"/>
<path d="M10265 3510 c-3 -5 27 -52 67 -102 82 -103 158 -200 263 -336 58 -75
75 -91 98 -92 15 0 27 2 27 5 0 9 -390 498 -412 518 -23 19 -34 21 -43 7z"/>
<path d="M10355 3510 c-4 -6 -3 -16 2 -23 24 -31 370 -455 392 -479 16 -18 34
-28 53 -28 15 0 28 3 28 6 0 5 -86 111 -357 442 -72 87 -102 108 -118 82z"/>
<path d="M10456 3512 c-3 -4 90 -126 205 -270 202 -252 211 -262 245 -262 l34
0 -88 108 c-126 153 -184 225 -268 328 -77 97 -111 122 -128 96z"/>
<path d="M10565 3510 c-7 -11 -2 -18 159 -220 250 -314 246 -310 278 -310 l29
0 -20 28 c-82 112 -410 507 -423 510 -9 2 -19 -2 -23 -8z"/>
<path d="M10655 3510 c-3 -5 29 -53 72 -106 114 -139 186 -230 245 -306 28
-38 55 -68 60 -68 4 0 8 12 8 26 0 18 -50 89 -172 245 -162 205 -195 238 -213
209z"/>
<path d="M10750 3509 c0 -6 17 -31 38 -57 68 -84 156 -196 197 -249 21 -29 43
-53 47 -53 4 0 8 12 8 28 0 19 -30 67 -101 162 -55 74 -110 145 -121 158 -22
23 -68 31 -68 11z"/>
<path d="M10864 3506 c-5 -14 153 -235 169 -236 4 0 7 14 7 31 0 33 -14 56
-94 157 -49 62 -72 75 -82 48z"/>
<path d="M10956 3512 c-6 -10 64 -111 77 -112 17 0 5 56 -19 87 -24 32 -47 42
-58 25z"/>
<path d="M9370 3387 c0 -15 49 -85 135 -193 74 -93 163 -204 197 -248 35 -43
86 -106 113 -140 28 -33 61 -76 73 -93 28 -39 42 -42 42 -9 0 17 -65 106 -202
278 -306 385 -341 428 -350 428 -4 0 -8 -10 -8 -23z"/>
<path d="M9370 3268 c0 -31 34 -77 269 -373 147 -185 272 -337 277 -336 5 1 9
14 9 30 0 23 -54 97 -264 360 -145 182 -270 336 -277 342 -11 9 -14 5 -14 -23z"/>
<path d="M9370 3143 c0 -43 12 -60 255 -357 93 -114 179 -220 189 -235 52 -70
99 -120 107 -115 20 12 6 50 -43 113 -61 77 -225 285 -387 489 -62 78 -115
142 -117 142 -2 0 -4 -16 -4 -37z"/>
<path d="M9370 3016 c0 -22 9 -42 25 -60 14 -15 44 -53 67 -83 22 -31 49 -64
59 -74 10 -10 31 -36 46 -57 108 -148 349 -439 355 -429 17 27 3 53 -110 194
-65 81 -189 237 -275 346 -86 108 -159 197 -162 197 -3 0 -5 -15 -5 -34z"/>
<path d="M9370 2893 c0 -21 19 -53 68 -114 117 -146 416 -529 445 -570 32 -44
47 -43 47 3 0 24 -32 69 -157 226 -87 107 -209 259 -271 336 -62 78 -117 143
-122 144 -6 2 -10 -9 -10 -25z"/>
<path d="M9370 2764 c0 -24 48 -100 92 -145 8 -8 27 -32 43 -54 16 -22 52 -68
80 -102 27 -34 79 -98 115 -144 36 -45 88 -109 115 -143 28 -34 61 -76 73 -93
29 -41 42 -42 42 -2 0 25 -20 57 -94 148 -381 474 -449 556 -457 559 -5 2 -9
-9 -9 -24z"/>
<path d="M9370 2643 c0 -21 61 -103 261 -353 143 -179 265 -333 270 -343 12
-21 29 -13 29 14 0 11 -62 97 -137 192 -306 384 -405 507 -414 512 -5 4 -9 -6
-9 -22z"/>
<path d="M9370 2518 c0 -28 42 -86 274 -375 150 -188 276 -339 280 -336 25 26
-1 63 -335 483 -63 80 -135 171 -159 203 -25 31 -48 57 -52 57 -5 0 -8 -15 -8
-32z"/>
<path d="M9370 2388 c0 -35 -28 2 634 -823 249 -310 253 -315 283 -315 13 0
23 3 23 6 0 3 -49 67 -109 142 -60 76 -267 335 -461 577 -193 242 -356 442
-361 443 -5 2 -9 -11 -9 -30z"/>
<path d="M9370 2270 c0 -30 13 -48 128 -190 40 -49 289 -359 520 -647 138
-173 149 -183 181 -183 31 0 33 1 20 20 -35 50 -835 1029 -841 1030 -5 0 -8
-14 -8 -30z"/>
<path d="M9370 2149 c0 -36 11 -54 145 -218 55 -68 150 -186 210 -261 61 -75
155 -192 210 -259 55 -68 107 -132 116 -143 11 -14 25 -19 47 -16 l32 3 -122
151 c-68 83 -152 186 -187 230 -36 43 -150 184 -253 312 -104 127 -191 232
-194 232 -2 0 -4 -14 -4 -31z"/>
<path d="M9370 2018 c0 -28 28 -67 166 -238 91 -113 224 -278 296 -367 123
-153 133 -163 165 -163 l35 0 -34 42 c-18 23 -67 83 -108 133 -41 50 -111 135
-155 189 -44 55 -96 118 -115 141 -19 23 -82 98 -139 168 -57 70 -105 127
-107 127 -2 0 -4 -15 -4 -32z"/>
<path d="M9370 1905 c0 -46 -20 -19 305 -415 29 -36 84 -103 121 -150 59 -73
74 -85 103 -88 l34 -3 -24 29 c-13 16 -85 106 -160 198 -75 93 -187 232 -249
309 -62 77 -117 144 -121 150 -5 5 -9 -8 -9 -30z"/>
<path d="M9370 1765 c0 -18 57 -96 191 -263 106 -130 195 -241 199 -245 4 -5
22 -7 40 -5 l32 3 -59 70 c-32 39 -112 135 -177 215 -159 194 -208 250 -218
250 -4 0 -8 -11 -8 -25z"/>
<path d="M9970 1741 c0 -6 81 -107 179 -225 98 -118 187 -226 197 -240 17 -22
64 -37 64 -20 0 3 -30 45 -67 92 -38 47 -99 124 -136 171 -37 47 -80 102 -95
122 -60 78 -82 100 -111 105 -20 4 -31 2 -31 -5z"/>
<path d="M10070 1740 c0 -5 33 -49 74 -97 41 -48 131 -157 201 -240 103 -125
131 -153 152 -153 19 0 23 3 16 13 -5 6 -36 46 -70 87 -33 41 -113 143 -178
225 -65 83 -125 156 -133 163 -18 14 -62 16 -62 2z"/>
<path d="M10176 1742 c-5 -9 27 -51 194 -252 52 -63 117 -143 144 -177 41 -52
54 -63 79 -63 36 0 55 -28 -178 264 -192 241 -187 236 -216 236 -10 0 -20 -4
-23 -8z"/>
<path d="M10290 1734 c0 -9 21 -42 48 -74 26 -32 108 -137 182 -233 126 -164
137 -176 168 -176 24 -1 31 2 26 12 -4 6 -64 81 -133 166 -69 85 -154 189
-187 231 -53 66 -80 90 -100 90 -2 0 -4 -7 -4 -16z"/>
<path d="M10385 1740 c-7 -12 2 -25 222 -300 132 -165 152 -185 181 -188 17
-2 32 0 32 3 0 4 -33 46 -72 95 -40 48 -98 118 -128 155 -199 246 -217 264
-235 235z"/>
<path d="M10482 1736 c2 -8 88 -121 191 -250 169 -212 191 -236 218 -236 16 0
29 3 29 6 0 7 -331 417 -373 462 -32 33 -71 44 -65 18z"/>
<path d="M10580 1739 c0 -6 86 -118 191 -250 173 -216 194 -239 221 -239 28 0
29 2 17 18 -21 26 -89 110 -144 177 -27 34 -86 106 -130 160 -44 55 -90 110
-102 122 -23 24 -53 31 -53 12z"/>
<path d="M10682 1732 c2 -10 86 -122 188 -249 159 -200 189 -232 213 -233 15
0 27 2 27 5 0 3 -53 72 -117 152 -65 80 -137 170 -160 201 -24 30 -60 74 -82
98 -41 46 -75 58 -69 26z"/>
<path d="M10780 1738 c0 -12 57 -91 121 -168 21 -25 77 -94 125 -155 47 -60
88 -112 90 -114 2 -2 4 13 4 35 -1 35 -16 58 -151 227 -103 129 -156 187 -169
187 -11 0 -20 -5 -20 -12z"/>
<path d="M10870 1742 c0 -5 19 -31 43 -59 23 -28 78 -97 122 -154 79 -102 80
-103 83 -71 3 29 -9 50 -84 149 -49 63 -97 121 -108 129 -22 15 -56 19 -56 6z"/>
<path d="M10970 1740 c0 -6 33 -51 73 -101 70 -89 72 -90 75 -60 3 31 -27 86
-81 144 -25 26 -67 37 -67 17z"/>
<path d="M11075 1740 c-3 -6 4 -25 17 -43 l23 -32 3 28 c2 16 1 35 -2 43 -6
16 -32 19 -41 4z"/>
<path d="M9370 1644 c0 -17 27 -59 81 -127 45 -56 110 -139 147 -184 59 -76
68 -83 100 -83 32 0 34 1 20 18 -8 9 -34 42 -59 72 -24 30 -69 84 -99 121 -30
36 -81 98 -114 137 -32 40 -63 72 -67 72 -5 0 -9 -12 -9 -26z"/>
<path d="M9376 1553 c-3 -3 -6 -20 -6 -36 0 -28 34 -75 175 -244 15 -18 28
-24 48 -21 l27 3 -62 80 c-151 195 -176 224 -182 218z"/>
<path d="M9370 1400 c0 -47 90 -150 131 -150 29 0 29 0 -42 88 -39 48 -75 89
-80 90 -5 2 -9 -11 -9 -28z"/>
<path d="M9370 1282 c0 -27 4 -32 25 -32 14 0 25 4 25 8 0 5 -11 19 -25 32
l-25 23 0 -31z"/>
<path d="M11856 5394 c-3 -8 -6 -987 -6 -2175 0 -1923 2 -2159 15 -2159 17 0
30 -26 73 -150 16 -47 50 -141 75 -210 25 -69 49 -137 52 -152 4 -15 13 -32
20 -38 8 -7 310 -9 956 -8 l944 3 3 380 3 380 -25 70 c-119 337 -165 475 -168
505 l-3 35 -410 5 -410 5 -5 1475 -5 1475 -43 115 c-24 63 -49 133 -57 155 -7
22 -27 78 -45 125 -17 47 -35 105 -39 130 l-6 45 -457 3 c-409 2 -456 1 -462
-14z m864 -1809 l0 -1765 513 -2 512 -3 0 -345 0 -345 -915 0 -915 0 -3 2100
c-1 1155 0 2106 3 2113 3 9 94 12 405 12 l400 0 0 -1765z"/>
<path d="M12050 5225 c0 -6 108 -145 120 -155 4 -3 26 -31 49 -64 24 -32 51
-66 60 -75 9 -9 30 -35 46 -56 17 -22 73 -94 125 -161 52 -66 107 -136 122
-155 22 -29 27 -31 33 -16 4 9 5 27 1 40 -3 13 -117 162 -253 332 -204 255
-253 311 -276 313 -15 2 -27 1 -27 -3z"/>
<path d="M12150 5222 c0 -4 19 -30 43 -57 23 -28 75 -93 115 -145 39 -52 83
-108 97 -124 14 -16 62 -78 107 -137 45 -59 86 -105 90 -103 4 3 8 17 8 32 0
19 -27 61 -88 138 -48 61 -139 177 -202 258 -98 125 -119 146 -142 146 -16 0
-28 -3 -28 -8z"/>
<path d="M12247 5216 c4 -7 34 -44 65 -82 32 -38 108 -131 168 -206 61 -76
115 -138 121 -138 15 0 10 43 -9 71 -9 14 -80 102 -156 197 -122 151 -143 172
-168 172 -22 0 -27 -3 -21 -14z"/>
<path d="M12356 5218 c48 -78 226 -298 241 -298 16 0 17 25 1 53 -10 19 -85
119 -167 224 -18 23 -34 33 -54 33 -20 0 -26 -4 -21 -12z"/>
<path d="M12452 5220 c8 -23 134 -179 146 -180 15 0 16 34 0 63 -6 12 -29 46
-51 75 -32 42 -45 52 -69 52 -16 0 -28 -4 -26 -10z"/>
<path d="M12565 5195 c30 -38 49 -35 43 6 -2 19 -10 25 -37 27 l-33 3 27 -36z"/>
<path d="M12030 5152 c0 -19 26 -61 93 -144 120 -153 237 -302 366 -466 69
-89 107 -130 114 -123 18 18 -2 55 -80 153 -172 214 -468 590 -471 599 -8 20
-22 7 -22 -19z"/>
<path d="M12030 5029 c0 -34 3 -39 368 -496 106 -134 197 -243 202 -243 27 0
5 54 -52 127 -35 44 -101 129 -148 189 -46 60 -138 177 -203 259 -66 83 -126
160 -135 173 -20 31 -32 28 -32 -9z"/>
<path d="M12030 4905 c0 -33 5 -40 205 -291 88 -110 203 -255 255 -322 52 -67
101 -121 108 -122 22 0 13 47 -15 82 -37 44 -95 116 -417 523 -65 83 -122 152
-127 153 -5 2 -9 -8 -9 -23z"/>
<path d="M12030 4782 c0 -15 12 -43 28 -62 16 -19 87 -109 157 -200 71 -91
131 -167 135 -170 3 -3 57 -71 120 -152 108 -139 140 -169 140 -132 0 26 -16
49 -179 252 -86 109 -209 263 -274 345 -65 81 -120 147 -122 147 -3 0 -5 -12
-5 -28z"/>
<path d="M12030 4653 c0 -32 11 -52 73 -128 39 -50 166 -208 280 -353 115
-144 213 -262 218 -262 5 0 9 13 9 28 0 34 9 21 -299 414 -237 301 -263 333
-272 336 -5 2 -9 -14 -9 -35z"/>
<path d="M12030 4528 c0 -27 23 -61 128 -195 335 -424 438 -551 444 -546 17
10 7 58 -19 92 -26 34 -139 177 -416 526 -65 83 -123 152 -128 153 -5 2 -9
-11 -9 -30z"/>
<path d="M12030 4410 c0 -26 9 -45 36 -75 20 -22 43 -51 53 -65 9 -14 52 -70
96 -125 77 -96 205 -260 322 -412 30 -40 59 -70 64 -67 18 11 8 52 -23 96 -46
63 -476 604 -515 647 l-32 36 -1 -35z"/>
<path d="M12030 4279 c0 -25 26 -64 133 -198 73 -91 200 -251 282 -354 102
-129 152 -184 159 -177 17 17 -3 53 -89 161 -324 410 -476 599 -480 599 -3 0
-5 -14 -5 -31z"/>
<path d="M12030 4158 c0 -35 -3 -31 383 -522 98 -124 182 -226 188 -226 17 0
9 57 -13 86 -12 16 -108 137 -213 269 -105 132 -224 282 -264 333 -40 50 -75
92 -77 92 -2 0 -4 -15 -4 -32z"/>
<path d="M12030 4039 c0 -37 2 -41 205 -295 88 -110 203 -255 255 -322 52 -67
101 -121 108 -122 6 0 12 11 12 24 0 16 -63 104 -192 268 -106 135 -233 297
-283 361 -49 64 -93 116 -97 117 -5 0 -8 -14 -8 -31z"/>
<path d="M12030 3912 c0 -15 8 -39 17 -52 19 -27 174 -222 183 -230 3 -3 19
-23 35 -45 87 -118 319 -400 331 -403 17 -4 18 21 3 50 -6 11 -81 108 -168
216 -86 109 -209 263 -274 345 -65 81 -120 147 -122 147 -3 0 -5 -12 -5 -28z"/>
<path d="M12030 3778 c0 -26 19 -56 93 -148 50 -64 177 -222 280 -353 104
-130 193 -237 198 -237 5 0 9 11 9 24 0 28 -12 44 -329 448 -219 277 -235 298
-243 298 -5 0 -8 -15 -8 -32z"/>
<path d="M12030 3658 c0 -35 -1 -34 389 -524 95 -121 176 -219 180 -219 3 0 7
11 9 25 4 32 -12 56 -184 272 -76 95 -191 241 -257 323 -65 83 -123 152 -128
153 -5 2 -9 -11 -9 -30z"/>
<path d="M12030 3539 c0 -29 12 -51 63 -115 34 -44 68 -87 75 -95 7 -7 105
-131 218 -274 113 -143 209 -260 213 -260 3 0 7 11 9 25 2 16 -9 42 -30 71
-46 64 -476 605 -515 648 l-32 36 -1 -36z"/>
<path d="M12030 3409 c0 -25 26 -64 133 -198 73 -91 200 -250 281 -353 82
-103 152 -185 157 -182 28 17 22 24 -291 420 -52 66 -133 170 -180 232 -47 61
-88 111 -92 111 -5 1 -8 -13 -8 -30z"/>
<path d="M12030 3289 c0 -34 1 -34 333 -454 213 -268 227 -285 237 -285 18 0
10 47 -12 76 -12 16 -108 137 -213 269 -105 132 -224 282 -264 333 -40 50 -75
92 -77 92 -2 0 -4 -14 -4 -31z"/>
<path d="M12030 3163 c1 -15 13 -45 28 -65 40 -54 271 -349 479 -611 30 -37
58 -65 64 -62 18 12 9 54 -18 87 -37 44 -95 116 -417 523 -65 83 -122 152
-127 153 -5 2 -9 -9 -9 -25z"/>
<path d="M12030 3042 c0 -33 5 -40 135 -203 55 -69 172 -217 260 -327 148
-187 185 -225 185 -188 0 22 -44 81 -369 491 -181 229 -202 255 -206 255 -3 0
-5 -12 -5 -28z"/>
<path d="M12030 2908 c0 -32 68 -123 360 -483 27 -33 83 -104 125 -158 42 -53
81 -95 86 -92 27 17 3 61 -108 202 -284 359 -445 558 -454 561 -5 2 -9 -11 -9
-30z"/>
<path d="M12030 2788 c0 -33 5 -40 223 -318 24 -30 95 -120 158 -200 63 -80
129 -164 148 -187 39 -51 51 -54 51 -14 0 22 -21 56 -77 128 -142 181 -463
590 -479 609 -17 22 -24 17 -24 -18z"/>
<path d="M12030 2661 c0 -22 39 -78 173 -246 219 -276 264 -334 333 -422 31
-40 60 -70 65 -67 16 9 10 40 -15 76 -23 35 -353 452 -425 538 -20 25 -55 69
-76 98 -22 28 -43 52 -47 52 -4 0 -8 -13 -8 -29z"/>
<path d="M12030 2541 c0 -30 9 -43 169 -248 277 -355 403 -513 407 -513 2 0 4
15 4 34 0 39 -6 47 -263 371 -88 110 -191 241 -231 292 -39 50 -74 92 -78 92
-5 1 -8 -12 -8 -28z"/>
<path d="M12030 2420 c0 -37 12 -58 72 -131 20 -24 217 -270 437 -547 221
-277 408 -505 416 -508 7 -3 23 -4 36 -2 18 3 -47 89 -451 593 -259 325 -480
599 -491 610 -19 19 -19 19 -19 -15z"/>
<path d="M12030 2286 c0 -17 75 -119 238 -323 131 -164 316 -396 411 -515 164
-207 197 -239 215 -209 3 5 -126 172 -287 371 -160 200 -312 389 -337 420 -25
32 -61 77 -81 101 -19 24 -59 74 -89 112 -29 37 -57 67 -62 67 -4 0 -8 -11 -8
-24z"/>
<path d="M12030 2167 c0 -23 18 -53 81 -129 19 -23 85 -106 145 -183 439 -557
496 -625 525 -625 16 0 29 3 29 8 0 4 -51 70 -113 147 -62 77 -216 268 -342
425 -334 416 -325 407 -325 357z"/>
<path d="M12030 2036 c0 -37 -24 -6 473 -624 77 -96 146 -176 153 -179 7 -2
20 0 30 5 15 8 13 14 -18 48 -19 21 -55 66 -81 99 -26 33 -59 76 -74 95 -16
19 -88 111 -162 205 -74 93 -172 218 -219 278 -47 59 -89 107 -94 107 -4 0 -8
-16 -8 -34z"/>
<path d="M12030 1912 c0 -21 32 -67 131 -188 171 -208 271 -331 342 -421 54
-68 74 -83 90 -67 6 7 -4 21 -190 255 -59 75 -164 207 -231 293 -68 86 -128
156 -133 156 -5 0 -9 -13 -9 -28z"/>
<path d="M12036 1823 c-3 -3 -6 -18 -6 -33 0 -20 54 -94 206 -286 113 -142
211 -262 217 -266 18 -11 47 -10 47 2 0 6 -33 52 -73 103 -78 97 -275 347
-343 434 -23 29 -44 49 -48 46z"/>
<path d="M12660 1723 c0 -5 87 -116 193 -248 157 -196 197 -241 220 -243 17
-2 27 1 27 10 -1 7 -59 83 -131 168 -72 85 -160 192 -197 238 -48 59 -73 82
-89 82 -13 0 -23 -3 -23 -7z"/>
<path d="M12760 1725 c0 -4 273 -351 356 -452 33 -40 74 -57 88 -35 2 4 -19
35 -47 68 -29 33 -92 110 -141 170 -200 243 -210 254 -233 254 -13 0 -23 -2
-23 -5z"/>
<path d="M12862 1712 c7 -10 69 -87 138 -172 69 -84 153 -189 188 -232 53 -67
66 -78 93 -78 37 0 56 -29 -180 268 -175 221 -186 232 -218 232 -31 0 -33 -2
-21 -18z"/>
<path d="M13087 1548 c81 -101 172 -213 202 -250 44 -55 61 -68 83 -68 15 0
28 2 28 5 0 3 -73 96 -162 207 -89 112 -177 222 -195 246 -29 35 -40 42 -69
42 l-35 0 148 -182z"/>
<path d="M13062 1716 c2 -8 31 -47 65 -88 58 -70 170 -204 278 -337 46 -56 85
-79 85 -48 0 6 -62 89 -136 182 -244 306 -243 305 -270 305 -17 0 -24 -5 -22
-14z"/>
<path d="M13150 1726 c0 -6 237 -294 284 -346 17 -19 52 -61 76 -92 32 -41 51
-58 68 -58 13 0 22 4 20 10 -1 5 -88 117 -193 249 -177 224 -192 240 -222 240
-18 1 -33 -1 -33 -3z"/>
<path d="M13260 1719 c0 -9 44 -64 279 -354 97 -120 91 -115 91 -74 0 31 -21
62 -162 237 -127 159 -166 202 -185 202 -12 0 -23 -5 -23 -11z"/>
<path d="M13356 1722 c-5 -8 241 -312 263 -326 7 -5 11 4 11 24 0 44 -210 310
-245 310 -13 0 -26 -4 -29 -8z"/>
<path d="M13450 1725 c0 -5 93 -120 149 -185 l30 -35 1 38 c0 33 -9 50 -61
113 -50 61 -65 74 -90 74 -16 0 -29 -2 -29 -5z"/>
<path d="M13566 1721 c-3 -4 9 -27 27 -50 l32 -42 3 30 c2 16 -2 39 -8 51 -11
20 -44 27 -54 11z"/>
<path d="M12030 1662 c0 -24 34 -72 161 -231 145 -181 163 -201 191 -201 l30
0 -19 24 c-68 89 -347 432 -354 434 -5 2 -9 -10 -9 -26z"/>
<path d="M12030 1543 c0 -34 205 -306 234 -311 41 -8 34 17 -26 94 -35 44 -92
117 -127 162 -36 45 -68 82 -73 82 -4 0 -8 -12 -8 -27z"/>
<path d="M12030 1418 c0 -25 14 -50 58 -105 54 -69 94 -96 112 -77 7 8 -142
205 -161 212 -5 2 -9 -11 -9 -30z"/>
<path d="M12037 1314 c-11 -12 -8 -48 6 -68 9 -12 23 -17 44 -14 l32 3 -37 43
c-21 24 -41 40 -45 36z"/>
</g>
</svg>
